<?xml version="1.0" standalone="no"?>
<!DOCTYPE svg PUBLIC "-//W3C//DTD SVG 1.1//EN" "http://www.w3.org/Graphics/SVG/1.1/DTD/svg11.dtd" >
<svg xmlns="http://www.w3.org/2000/svg" xmlns:xlink="http://www.w3.org/1999/xlink" version="1.1">
<metadata>
Created by FontForge 20170731 at Mon Jun 13 19:38:30 2011
 By Aleksey,,,
Copyright (c) 2011 Linotype Corp., www.linotype.com. All rights reserved. This font software may not be reproduced, modified, disclosed or transferred without the express written approval of Linotype Corp. Neue Haas Grotesk is a trademark of Linotype Corp. registered in the U.S. Patent and Trademark Office and may be registered in certain other jurisdictions in the name of Linotype Corp. or its licensee Linotype GmbH. This typeface is original artwork of Christian Schwartz. The design may be protected in certain jurisdictions.
</metadata>
<defs>
<font id="NeueHaasGroteskDispMedium" horiz-adv-x="500" >
  <font-face 
    font-family="NeueHaasGroteskDisp Medium"
    font-weight="500"
    font-stretch="normal"
    units-per-em="1000"
    panose-1="2 0 6 3 0 0 0 2 0 3"
    ascent="800"
    descent="-200"
    x-height="513"
    cap-height="715"
    bbox="-171 -263 1202 930"
    underline-thickness="20"
    underline-position="-173"
    unicode-range="U+0020-FB02"
  />
<missing-glyph horiz-adv-x="168" 
 />
    <glyph glyph-name=".notdef" horiz-adv-x="168" 
 />
    <glyph glyph-name=".null" horiz-adv-x="0" 
 />
    <glyph glyph-name="nonmarkingreturn" horiz-adv-x="333" 
 />
    <glyph glyph-name="space" unicode=" " horiz-adv-x="168" 
 />
    <glyph glyph-name="exclam" unicode="!" horiz-adv-x="254" 
d="M94 209l-38 348v158h142v-158l-38 -348h-66zM54 0v145h146v-145h-146z" />
    <glyph glyph-name="quotedbl" unicode="&#x22;" horiz-adv-x="382" 
d="M222 464v251h119v-251h-119zM41 464v251h119v-251h-119z" />
    <glyph glyph-name="numbersign" unicode="#" horiz-adv-x="593" 
d="M61 407l18 106h96l27 173h93l-27 -173h108l27 173h93l-27 -173h97l-17 -106h-97l-18 -118h96l-17 -106h-96l-28 -183h-93l28 183h-108l-28 -183h-93l28 183h-97l18 106h96l18 118h-97zM251 407l-18 -118h108l18 118h-108z" />
    <glyph glyph-name="dollar" unicode="$" horiz-adv-x="614" 
d="M281 -97v86q-123 8 -189.5 65.5t-69.5 159.5h136q7 -53 36 -80.5t87 -33.5v190q-4 0 -5 1q-43 10 -72 18t-63 24.5t-53.5 36.5t-33 52t-13.5 73q0 94 65.5 146.5t174.5 58.5v59h60v-60q102 -9 161.5 -63.5t66.5 -148.5h-133q-10 81 -95 99v-173q1 -1 6 -1
q56 -12 93 -24.5t73.5 -35.5t54.5 -60t18 -88q0 -97 -67.5 -153.5t-177.5 -62.5v-85h-60zM446 187q0 36 -25 55t-80 33v-175q46 4 75.5 26t29.5 61zM180 510q0 -34 23 -51.5t78 -32.5v163q-48 -5 -74.5 -25.5t-26.5 -53.5z" />
    <glyph glyph-name="percent" unicode="%" horiz-adv-x="837" 
d="M195 301q-77 0 -126.5 54.5t-49.5 144.5q0 91 50 145.5t126 54.5q78 0 126.5 -54.5t48.5 -145.5q0 -90 -48.5 -144.5t-126.5 -54.5zM643 -16q-77 0 -126.5 54.5t-49.5 144.5q0 91 50 145.5t126 54.5q78 0 126.5 -54.5t48.5 -145.5q0 -90 -48.5 -144.5t-126.5 -54.5z
M201 0l351 686h85l-351 -686h-85zM643 61q34 0 51.5 33t17.5 89t-17.5 90t-51.5 34t-51.5 -33.5t-17.5 -90.5q0 -56 17.5 -89t51.5 -33zM195 378q34 0 51.5 33t17.5 89t-17.5 90t-51.5 34t-51.5 -33.5t-17.5 -90.5q0 -56 17.5 -89t51.5 -33z" />
    <glyph glyph-name="ampersand" unicode="&#x26;" horiz-adv-x="656" 
d="M257 -15q-114 0 -176 55.5t-62 143.5q0 133 158 213q-32 40 -46 72.5t-14 75.5q0 71 51.5 118t133.5 47t134.5 -45.5t52.5 -118.5q0 -62 -32 -100.5t-96 -71.5l95 -123q22 54 28 116h121q-11 -128 -68 -221l113 -146h-166l-37 47q-84 -62 -190 -62zM262 97q64 0 114 42
l-131 171q-82 -50 -82 -122q0 -41 28 -66t71 -25zM248 543q0 -43 52 -92q60 36 60 93q0 26 -16 41.5t-40 15.5t-40 -16t-16 -42z" />
    <glyph glyph-name="quotesingle" unicode="'" horiz-adv-x="201" 
d="M41 464v251h119v-251h-119z" />
    <glyph glyph-name="parenleft" unicode="(" horiz-adv-x="346" 
d="M333 -131h-114q-152 213 -152 439q0 249 151 446h116q-125 -200 -125 -446q0 -225 124 -439z" />
    <glyph glyph-name="parenright" unicode=")" horiz-adv-x="346" 
d="M127 -131h-114q124 214 124 439q0 246 -125 446h116q151 -197 151 -446q0 -226 -152 -439z" />
    <glyph glyph-name="asterisk" unicode="*" horiz-adv-x="402" 
d="M134 391l-62 45l68 92l-108 35l27 69l104 -35v118h77v-118l103 35l27 -69l-106 -35l67 -92l-61 -45l-68 97z" />
    <glyph glyph-name="plus" unicode="+" horiz-adv-x="569" 
d="M35 278v100h197v203h104v-203h198v-100h-198v-203h-104v203h-197z" />
    <glyph glyph-name="comma" unicode="," horiz-adv-x="218" 
d="M37 -166v49q72 37 72 117h-73v145h146v-137q0 -72 -42 -118t-103 -56z" />
    <glyph glyph-name="hyphen" unicode="-" horiz-adv-x="339" 
d="M34 189v117h271v-117h-271z" />
    <glyph glyph-name="period" unicode="." horiz-adv-x="218" 
d="M36 0v145h146v-145h-146z" />
    <glyph glyph-name="slash" unicode="/" horiz-adv-x="414" 
d="M13 0l280 715h108l-280 -715h-108z" />
    <glyph glyph-name="zero" unicode="0" horiz-adv-x="632" 
d="M316 -16q-131 0 -208.5 97t-77.5 261t78.5 261t208.5 97q132 0 208.5 -96.5t76.5 -261.5t-76.5 -261.5t-209.5 -96.5zM317 100q143 0 143 242q0 114 -35 178t-108 64t-109 -64t-36 -178q0 -113 36 -177.5t109 -64.5z" />
    <glyph glyph-name="one" unicode="1" horiz-adv-x="392" 
d="M182 0v478h-155v90q156 6 173 122h119v-690h-137z" />
    <glyph glyph-name="two" unicode="2" horiz-adv-x="547" 
d="M518 0h-492q3 88 47.5 151t117.5 121q16 13 50.5 38t51.5 39t38.5 35.5t30.5 44t9 47.5q0 49 -25 78t-70 29q-52 0 -81 -36t-31 -103h-128q0 120 61.5 187.5t181.5 67.5q108 0 170.5 -63t62.5 -156q0 -38 -11 -71t-24.5 -55t-41 -47t-44.5 -37.5t-51 -35.5
q-109 -70 -138 -122h316v-112z" />
    <glyph glyph-name="three" unicode="3" horiz-adv-x="567" 
d="M285 -15q-130 0 -199 66.5t-71 181.5h130q8 -139 135 -139q57 0 89 29t32 82q0 51 -32 78.5t-94 27.5h-42v103h39q50 0 80.5 24t30.5 67q0 41 -26 65.5t-71 24.5q-57 0 -87 -33t-32 -89h-130q4 104 68 165t181 61q108 0 171.5 -50t63.5 -135q0 -104 -117 -144v-2
q139 -33 139 -172q0 -102 -73 -156.5t-185 -54.5z" />
    <glyph glyph-name="four" unicode="4" horiz-adv-x="595" 
d="M340 0v149h-316v147l311 397h138v-435h104v-109h-104v-149h-133zM134 261v-3h206v266h-2z" />
    <glyph glyph-name="five" unicode="5" horiz-adv-x="578" 
d="M289 -15q-115 0 -190.5 57t-85.5 156h134q9 -49 46 -74t93 -25q58 0 92.5 36.5t34.5 92.5q0 59 -35.5 92.5t-91.5 33.5q-75 0 -112 -43h-131l66 374h404v-113h-309l-26 -148h2q49 43 142 43q95 0 163.5 -66t68.5 -173q0 -106 -76 -174.5t-189 -68.5z" />
    <glyph glyph-name="six" unicode="6" horiz-adv-x="594" 
d="M315 -15q-139 0 -210.5 98t-73.5 249q-2 191 84 288q68 79 197 79q99 0 161.5 -49.5t74.5 -127.5h-131q-19 73 -100 73q-73 0 -110.5 -51.5t-37.5 -144.5h2q59 71 161 71q98 0 168 -69t70 -176q0 -105 -73 -172.5t-182 -67.5zM310 92q56 0 93 37.5t37 93.5q0 58 -37 97.5
t-92 39.5q-62 0 -97.5 -37.5t-35.5 -98.5q0 -58 37 -95t95 -37z" />
    <glyph glyph-name="seven" unicode="7" horiz-adv-x="530" 
d="M260 0h-148q4 117 45.5 234t92.5 194.5t109 137.5v2h-340v117h488v-112q-102 -105 -170.5 -251.5t-76.5 -321.5z" />
    <glyph glyph-name="eight" unicode="8" horiz-adv-x="597" 
d="M302 -15q-121 0 -200 56.5t-79 156.5q0 63 33.5 110.5t91.5 69.5v3q-96 44 -96 136q0 86 68 134t181 48q112 0 178 -47.5t66 -132.5q0 -93 -95 -137v-3q58 -20 91 -66.5t33 -108.5q0 -103 -75.5 -161t-196.5 -58zM299 95q60 0 97.5 29.5t37.5 78.5q0 54 -35 85t-98 31
t-100 -31.5t-37 -84.5q0 -51 36 -79.5t99 -28.5zM299 414q53 0 83 25t30 67t-30 66t-83 24q-54 0 -84 -24t-30 -66t30.5 -67t83.5 -25z" />
    <glyph glyph-name="nine" unicode="9" horiz-adv-x="597" 
d="M293 -15q-104 0 -165.5 49t-74.5 130h132q20 -75 104 -75q65 0 99 43q42 54 43 161h-2q-63 -75 -159 -75q-107 0 -176 66t-69 175q0 105 73 172.5t185 67.5q139 0 211.5 -87t72.5 -260q0 -367 -274 -367zM289 328q59 0 98.5 36.5t39.5 94.5q0 57 -39.5 95t-97.5 38
q-59 0 -97 -37t-38 -94q0 -60 36 -96.5t98 -36.5z" />
    <glyph glyph-name="colon" unicode=":" horiz-adv-x="224" 
d="M39 301v145h146v-145h-146zM39 0v145h146v-145h-146z" />
    <glyph glyph-name="semicolon" unicode=";" horiz-adv-x="224" 
d="M40 -166v49q72 37 72 117h-73v145h146v-137q0 -72 -42 -118t-103 -56zM39 301v145h146v-145h-146z" />
    <glyph glyph-name="less" unicode="&#x3c;" 
d="M455 79l-410 173v116l410 173v-114l-217 -85l-60 -21q-24 -8 -35 -12v-2q20 -7 35 -11q8 -3 29.5 -9t30.5 -10l217 -82v-116z" />
    <glyph glyph-name="equal" unicode="=" horiz-adv-x="562" 
d="M56 358v98h464v-98h-464zM56 165v98h464v-98h-464z" />
    <glyph glyph-name="greater" unicode="&#x3e;" 
d="M45 79v114l217 85l60 21q24 8 35 12v2q-4 1 -16 4.5t-19 5.5q-6 2 -28.5 9t-31.5 11l-217 82v116l410 -173v-116z" />
    <glyph glyph-name="question" unicode="?" horiz-adv-x="538" 
d="M315 209h-122q0 34 6 61.5t12 43t24 34t26.5 25t35.5 26.5q2 2 12.5 9.5t12.5 9t11 8.5t11.5 10t9 10t8.5 11.5t6.5 11.5t5.5 13.5t2.5 15t1.5 17.5q0 45 -29.5 71.5t-76.5 26.5q-57 0 -90.5 -33t-34.5 -92h-129q2 104 68.5 172t184.5 68q112 0 177.5 -59t65.5 -150
q0 -46 -16.5 -82t-33 -52.5t-45.5 -37.5q-9 -7 -29 -21.5t-25.5 -19t-18 -15t-15.5 -16.5l-8.5 -17t-6.5 -22.5t-1 -26.5zM181 0v145h146v-145h-146z" />
    <glyph glyph-name="at" unicode="@" horiz-adv-x="901" 
d="M395 78q-78 0 -122.5 53t-44.5 143q0 109 55 177t144 68q85 0 115 -74h2l7 63h125l-34 -274q-11 -80 43 -80q39 0 68 47.5t29 139.5q0 145 -86 220.5t-231 75.5t-242.5 -95.5t-97.5 -257.5q0 -142 82.5 -230t232.5 -88q93 0 181 37l28 -66q-93 -46 -207 -46
q-179 0 -292.5 108.5t-113.5 284.5q0 100 36 183t96.5 136t137 82t160.5 29q80 0 151.5 -24.5t127 -70t88 -117t32.5 -159.5q0 -123 -50.5 -193.5t-139.5 -70.5q-111 0 -141 79h-3q-49 -80 -136 -80zM430 175q47 0 73.5 41t26.5 106q0 46 -19.5 73.5t-56.5 27.5
q-44 0 -70 -41.5t-26 -104.5q0 -46 18 -74t54 -28z" />
    <glyph glyph-name="A" unicode="A" horiz-adv-x="659" 
d="M3 0l249 715h150l252 -715h-151l-48 152h-258l-47 -152h-147zM295 469l-64 -206h189l-64 206q-4 11 -10 35.5t-9 33.5q-1 5 -4.5 19l-5.5 22h-2q-8 -28 -11 -41q-3 -9 -9 -33.5t-10 -35.5z" />
    <glyph glyph-name="B" unicode="B" horiz-adv-x="656" 
d="M55 0v715h320q115 0 173 -52q57 -51 57 -134q0 -105 -112 -143v-3q61 -17 97 -64.5t36 -112.5q0 -96 -63 -149q-65 -57 -180 -57h-328zM200 320v-200h167q53 0 82.5 26t29.5 71q0 50 -32 76.5t-84 26.5h-163zM200 427h157q49 0 77.5 22.5t28.5 63.5q0 40 -27.5 62
t-75.5 22h-160v-170z" />
    <glyph glyph-name="C" unicode="C" horiz-adv-x="684" 
d="M368 -15q-151 0 -247.5 104.5t-96.5 265.5q0 162 94 268t249 106q128 0 205 -67.5t90 -173.5h-144q-10 55 -49.5 87t-101.5 32q-95 0 -145 -70.5t-50 -181.5q0 -112 53 -181.5t143 -69.5q64 0 105.5 34.5t48.5 91.5h142q-6 -101 -79 -169q-79 -76 -217 -76z" />
    <glyph glyph-name="D" unicode="D" horiz-adv-x="672" 
d="M55 0v715h279q142 0 228 -102.5t86 -262.5q0 -185 -114 -281q-83 -69 -212 -69h-267zM200 125h112q99 0 144 57t45 168q0 110 -47.5 175.5t-137.5 65.5h-116v-466z" />
    <glyph glyph-name="E" unicode="E" horiz-adv-x="619" 
d="M55 0v715h526v-122h-381v-160h334v-119h-334v-193h384v-121h-529z" />
    <glyph glyph-name="F" unicode="F" horiz-adv-x="594" 
d="M55 0v715h512v-123h-367v-172h311v-124h-311v-296h-145z" />
    <glyph glyph-name="G" unicode="G" horiz-adv-x="734" 
d="M579 0l-5 96h-2q-66 -111 -201 -111q-155 0 -251 104q-93 104 -93 266q0 186 117 292q91 82 230 82q131 0 209 -65t97 -174h-142q-13 54 -54 86.5t-107 32.5q-97 0 -149.5 -71t-52.5 -183t54.5 -182.5t145.5 -70.5q80 0 132 49.5t52 112.5v4h-172v112h301v-380h-109z" />
    <glyph glyph-name="H" unicode="H" horiz-adv-x="681" 
d="M55 0v715h145v-280h281v280h145v-715h-145v315h-281v-315h-145z" />
    <glyph glyph-name="I" unicode="I" horiz-adv-x="257" 
d="M56 0v715h145v-715h-145z" />
    <glyph glyph-name="J" unicode="J" horiz-adv-x="516" 
d="M251 -13q-114 0 -174 52t-60 156v71h130v-62q0 -53 23 -76.5t69 -23.5q86 0 86 98v513h145v-514q0 -96 -56 -155t-163 -59z" />
    <glyph glyph-name="K" unicode="K" horiz-adv-x="674" 
d="M55 0v715h145v-285l275 285h180l-280 -286l298 -429h-170l-230 334l-73 -74v-260h-145z" />
    <glyph glyph-name="L" unicode="L" horiz-adv-x="559" 
d="M55 0v715h145v-594h336v-121h-481z" />
    <glyph glyph-name="M" unicode="M" horiz-adv-x="814" 
d="M55 0v715h204l101 -359q21 -77 32 -130q3 -15 13 -63h2q10 48 13 63q20 90 31 130l101 359h207v-715h-135v410q0 65 3 96q1 8 2 26t1 26h-2q-2 -9 -5.5 -25.5t-4.5 -23.5q-3 -12 -10 -42t-11 -45l-123 -422h-139l-120 422q-5 16 -12 48t-9 39q-1 7 -4.5 23.5t-5.5 25.5
h-2q0 -9 1 -26.5t2 -25.5q3 -93 3 -96v-410h-133z" />
    <glyph glyph-name="N" unicode="N" horiz-adv-x="686" 
d="M55 0v715h147l238 -399q6 -10 17.5 -32.5t16.5 -32.5q1 -2 16 -35h2q-1 7 -1.5 21.5t-0.5 21.5q-2 50 -2 81v375h143v-715h-140l-244 395q-7 11 -19 34.5t-15 29.5q-12 24 -17 35h-2q0 -7 1 -21.5t1 -22.5q2 -50 2 -81v-369h-143z" />
    <glyph glyph-name="O" unicode="O" horiz-adv-x="737" 
d="M369 -16q-157 0 -251 104.5t-94 267.5t94 268t251 105q156 0 250 -105t94 -268t-94 -267.5t-250 -104.5zM370 103q95 0 145 70.5t50 182.5t-50 183t-145 71t-146.5 -71t-51.5 -183q0 -111 51.5 -182t146.5 -71z" />
    <glyph glyph-name="P" unicode="P" horiz-adv-x="637" 
d="M55 0v715h314q120 0 187 -67q64 -66 64 -163q0 -102 -64 -164t-175 -62h-176v-259h-150zM205 589v-212h150q56 0 86 28.5t30 78.5q0 51 -30 78t-84 27h-152z" />
    <glyph glyph-name="Q" unicode="Q" horiz-adv-x="733" 
d="M633 -42l-83 75q-81 -49 -183 -49q-156 0 -249.5 104.5t-93.5 267.5t93.5 268t249.5 105t249 -105t93 -268q0 -150 -78 -249l76 -68zM368 103q50 0 84 19l-63 58l74 80l65 -60q33 62 33 156q0 113 -49 183.5t-144 70.5t-145.5 -70.5t-50.5 -183.5q0 -112 50.5 -182.5
t145.5 -70.5z" />
    <glyph glyph-name="R" unicode="R" horiz-adv-x="651" 
d="M55 0v715h328q104 0 167 -55t63 -144q0 -137 -131 -173v-3q50 -15 76 -48t33 -96q3 -25 5 -56.5t3.5 -51t3.5 -38.5t7 -29.5t12 -13.5v-7h-139q-16 7 -24 141q-1 16 -2 24q-11 122 -140 122h-117v-287h-145zM200 598v-199h154q58 0 88 26.5t30 71.5q0 46 -29 73.5
t-85 27.5h-158z" />
    <glyph glyph-name="S" unicode="S" horiz-adv-x="642" 
d="M332 -16q-146 0 -225.5 61.5t-83.5 175.5h142q8 -65 45.5 -92.5t115.5 -27.5q61 0 100 22.5t39 69.5q0 25 -11 42t-39 29.5t-52 19.5t-75 18q-46 11 -75.5 19t-65 25t-56 37.5t-34.5 54t-14 76.5q0 103 75.5 158.5t198.5 55.5q122 0 195 -57.5t81 -165.5h-139
q-6 53 -43 80.5t-95 27.5q-59 0 -94 -23t-35 -61q0 -41 34 -59.5t122 -38.5q52 -11 85 -20.5t71.5 -27t60 -38.5t36 -55.5t14.5 -79.5q0 -106 -77.5 -166t-200.5 -60z" />
    <glyph glyph-name="T" unicode="T" horiz-adv-x="611" 
d="M18 593v122h575v-122h-215v-593h-145v593h-215z" />
    <glyph glyph-name="U" unicode="U" horiz-adv-x="657" 
d="M331 -12q-139 0 -210.5 62t-71.5 180v485h145v-485q0 -126 134 -126q67 0 101 34.5t34 93.5v483h145v-485q0 -116 -70.5 -179t-206.5 -63z" />
    <glyph glyph-name="V" unicode="V" horiz-adv-x="618" 
d="M243 0l-241 715h152l126 -414q3 -10 10 -36t11 -39q1 -6 4.5 -19t5.5 -20h2q1 7 4.5 20.5t5.5 19.5q4 11 11 37t10 37l125 414h147l-241 -715h-132z" />
    <glyph glyph-name="W" unicode="W" horiz-adv-x="916" 
d="M213 0l-208 715h148l93 -355q3 -16 10 -50.5t11 -50.5q1 -8 4.5 -26.5t5.5 -28.5h2q7 31 11 52q2 9 9.5 45t12.5 55l78 359h140l78 -358q18 -82 22 -100q3 -17 11 -53h2q8 36 12 55q4 16 11.5 51t11.5 51l90 354h143l-204 -715h-135l-87 383q-2 7 -17 83q-2 8 -4.5 22
t-3.5 22h-2q-4 -27 -7 -44q-9 -56 -16 -83l-88 -383h-134z" />
    <glyph glyph-name="X" unicode="X" horiz-adv-x="647" 
d="M8 0l231 374l-214 341h163l132 -226h2l132 226h158l-210 -340l237 -375h-169l-146 261h-2l-148 -261h-166z" />
    <glyph glyph-name="Y" unicode="Y" horiz-adv-x="629" 
d="M242 0v276l-238 439h158l108 -212q31 -65 32 -67q10 -24 15 -35h2q1 1 7 14.5t9 20.5q1 2 32 67l106 212h152l-238 -439v-276h-145z" />
    <glyph glyph-name="Z" unicode="Z" horiz-adv-x="626" 
d="M27 0v109l390 482v3h-365v121h537v-121l-377 -468v-3h384v-123h-569z" />
    <glyph glyph-name="bracketleft" unicode="[" horiz-adv-x="382" 
d="M64 -131v885h286v-106h-155v-673h155v-106h-286z" />
    <glyph glyph-name="backslash" unicode="\" horiz-adv-x="414" 
d="M293 0l-280 715h108l280 -715h-108z" />
    <glyph glyph-name="bracketright" unicode="]" horiz-adv-x="382" 
d="M32 -131v106h155v673h-155v106h286v-885h-286z" />
    <glyph glyph-name="asciicircum" unicode="^" horiz-adv-x="447" 
d="M8 428l158 287h115l158 -287h-124l-90 169h-2l-93 -169h-122z" />
    <glyph glyph-name="underscore" unicode="_" horiz-adv-x="423" 
d="M-3 -168v85h428v-85h-428z" />
    <glyph glyph-name="grave" unicode="`" 
d="M210 577l-108 141h159l55 -141h-106z" />
    <glyph glyph-name="a" unicode="a" horiz-adv-x="522" 
d="M498 0h-131q-10 14 -16 57h-2q-22 -33 -56 -51t-95 -18q-81 0 -130 41t-49 116q0 78 54 114.5t152 50.5q72 10 98 20.5t26 37.5q0 28 -22 44.5t-64 16.5q-93 0 -99 -72h-121q2 72 59 120.5t162 48.5q216 0 216 -189v-261q0 -58 18 -71v-5zM231 83q55 0 88 29t33 69v77
q-21 -13 -95 -30q-58 -13 -82 -29.5t-24 -50.5q0 -65 80 -65z" />
    <glyph glyph-name="b" unicode="b" horiz-adv-x="566" 
d="M330 -15q-102 0 -153 79h-2v-64h-131v715h136v-264h3q49 76 143 76q97 0 159 -75.5t62 -195.5q0 -123 -60 -197t-157 -74zM300 99q53 0 81 41t28 116q0 74 -29 117.5t-85 43.5q-118 0 -118 -164q0 -71 33 -112.5t90 -41.5z" />
    <glyph glyph-name="c" unicode="c" horiz-adv-x="528" 
d="M282 -15q-119 0 -191 77t-72 194q0 116 70.5 193.5t185.5 77.5q97 0 157.5 -51t75.5 -137h-133q-7 35 -32 57t-62 22q-61 0 -92.5 -42.5t-31.5 -119.5q0 -76 30.5 -119t91.5 -43q90 0 103 87h131q-6 -84 -69 -140t-162 -56z" />
    <glyph glyph-name="d" unicode="d" horiz-adv-x="566" 
d="M236 -15q-97 0 -157 74t-60 197q0 120 61.5 195.5t157.5 75.5t145 -76h3v264h136v-715h-131v67h-2q-52 -82 -153 -82zM266 99q60 0 91.5 41t31.5 113q0 164 -119 164q-55 0 -84 -44t-29 -117q0 -75 28 -116t81 -41z" />
    <glyph glyph-name="e" unicode="e" horiz-adv-x="544" 
d="M285 -15q-125 0 -195.5 76.5t-70.5 195.5q0 115 71 192.5t182 77.5q120 0 186.5 -84.5t66.5 -224.5h-372q18 -128 131 -128q75 0 99 63h134q-15 -72 -76 -120t-156 -48zM274 422q-100 0 -119 -110h228q-3 49 -32.5 79.5t-76.5 30.5z" />
    <glyph glyph-name="f" unicode="f" horiz-adv-x="330" 
d="M14 419v94h70v46q0 90 61.5 127.5t166.5 27.5v-105q-51 2 -71.5 -9t-20.5 -49v-38h92v-94h-92v-419h-136v419h-70z" />
    <glyph glyph-name="g" unicode="g" horiz-adv-x="560" 
d="M270 -175q-105 0 -167 42t-73 118h135q20 -57 103 -57q114 0 114 107v56h-3q-53 -60 -134 -60q-91 0 -158.5 67t-67.5 178q0 114 62 182.5t160 68.5q93 0 142 -68h2v54h131v-474q0 -101 -61 -156q-62 -58 -185 -58zM268 140q61 0 91 39t30 100t-31.5 100t-90.5 39
q-52 0 -83.5 -37.5t-31.5 -102.5t31 -101.5t85 -36.5z" />
    <glyph glyph-name="h" unicode="h" horiz-adv-x="549" 
d="M180 715v-269h3q29 42 63 61.5t86 19.5q79 0 128 -54t49 -138v-335h-136v315q0 43 -23.5 68.5t-65.5 25.5q-45 0 -74.5 -32.5t-29.5 -85.5v-291h-136v715h136z" />
    <glyph glyph-name="i" unicode="i" horiz-adv-x="224" 
d="M44 0v513h136v-513h-136zM44 593v122h136v-122h-136z" />
    <glyph glyph-name="j" unicode="j" horiz-adv-x="224" 
d="M36 -169q-46 0 -77 6v97q45 0 65 10.5t20 42.5v526h136v-533q0 -78 -34 -112q-37 -37 -110 -37zM44 593v122h136v-122h-136z" />
    <glyph glyph-name="k" unicode="k" horiz-adv-x="546" 
d="M382 0l-144 234l-59 -61v-173h-135v715h135v-396l182 194h163l-189 -195l212 -318h-165z" />
    <glyph glyph-name="l" unicode="l" horiz-adv-x="228" 
d="M46 0v715h136v-715h-136z" />
    <glyph glyph-name="m" unicode="m" horiz-adv-x="834" 
d="M44 0v513h131v-69h3q49 83 149 83q48 0 85.5 -24t56.5 -66h2q56 90 154 90q80 0 124.5 -48.5t44.5 -133.5v-345h-136v322q0 88 -79 88q-43 0 -67.5 -30.5t-24.5 -81.5v-298h-136v322q0 88 -79 88q-42 0 -67 -30.5t-25 -81.5v-298h-136z" />
    <glyph glyph-name="n" unicode="n" horiz-adv-x="549" 
d="M177 513v-70h3q52 84 152 84q79 0 128 -54t49 -138v-335h-136v315q0 43 -23.5 68.5t-65.5 25.5q-45 0 -74.5 -32.5t-29.5 -85.5v-291h-136v513h133z" />
    <glyph glyph-name="o" unicode="o" horiz-adv-x="574" 
d="M287 -15q-118 0 -193 77.5t-75 193.5t75 193.5t193 77.5t193 -77.5t75 -193.5t-75 -193.5t-193 -77.5zM287 89q62 0 96 45.5t34 121.5q0 77 -34 122.5t-96 45.5t-96 -45.5t-34 -122.5q0 -76 34 -121.5t96 -45.5z" />
    <glyph glyph-name="p" unicode="p" horiz-adv-x="571" 
d="M44 -168v681h131v-64h3q57 78 151 78q101 0 162 -75t61 -196q0 -124 -61 -197.5t-161 -73.5t-148 73h-2v-226h-136zM301 98q52 0 82.5 41t30.5 113q0 77 -29 121t-89 44q-61 0 -90 -45.5t-29 -119.5q0 -71 32 -112.5t92 -41.5z" />
    <glyph glyph-name="q" unicode="q" horiz-adv-x="571" 
d="M391 -168v226h-2q-45 -73 -140 -73q-96 0 -159 74.5t-63 196.5q0 121 60.5 196t161.5 75q95 0 144 -78h3v64h131v-681h-136zM278 101q54 0 85 40.5t31 110.5q0 75 -28.5 121t-86.5 46q-114 0 -114 -167q0 -73 29.5 -112t83.5 -39z" />
    <glyph glyph-name="r" unicode="r" horiz-adv-x="351" 
d="M175 513v-82h3q24 46 53 67t73 21q23 0 32 -4v-119h-3q-69 7 -111 -30t-42 -116v-250h-136v513h131z" />
    <glyph glyph-name="s" unicode="s" horiz-adv-x="485" 
d="M252 -15q-110 0 -172 48.5t-68 132.5h126q13 -85 112 -85q45 0 69.5 16t24.5 43q0 44 -116 64q-13 3 -19 4q-33 7 -55 12.5t-48.5 17.5t-41.5 27t-26 40t-11 58q0 80 58.5 122t150.5 42q100 0 156 -45t64 -125h-123q-5 41 -29 58t-70 17q-41 0 -64.5 -15t-23.5 -42
q0 -13 7 -22t23 -15t29 -9.5t40.5 -8.5t41.5 -8q34 -8 53 -13t47 -17.5t43 -28t26.5 -42t11.5 -61.5q0 -76 -59.5 -120.5t-156.5 -44.5z" />
    <glyph glyph-name="t" unicode="t" horiz-adv-x="332" 
d="M14 423v90h71v160h133v-160h88v-90h-88v-272q0 -51 51 -51h26q9 0 14 1v-100q-7 -1 -22 -1q-15 -1 -63 -1q-59 0 -99 28.5t-40 94.5v301h-71z" />
    <glyph glyph-name="u" unicode="u" horiz-adv-x="543" 
d="M499 0h-131v60h-3q-28 -38 -61.5 -56t-85.5 -18q-85 0 -131.5 49.5t-46.5 135.5v342h135v-319q0 -93 85 -93q47 0 75 32t28 84v296h136v-513z" />
    <glyph glyph-name="v" unicode="v" horiz-adv-x="491" 
d="M180 0l-178 513h138l82 -266q3 -12 9 -31.5t8 -27.5q4 -12 6 -23h2q2 16 5 23q9 35 17 59l84 266h136l-179 -513h-130z" />
    <glyph glyph-name="w" unicode="w" horiz-adv-x="745" 
d="M154 0l-150 513h135l62 -238q2 -8 8 -30.5t8 -33.5q2 -8 7 -32h2q4 22 7 33q11 52 15 64l64 237h116l67 -237q5 -24 16 -65q1 -5 3.5 -16t4.5 -16h2q5 24 7 32q7 33 16 64l65 238h132l-153 -513h-124l-68 252q-6 16 -16 60q-2 7 -7 29h-2q-2 -5 -4.5 -15l-3.5 -14
q-7 -23 -16 -60l-70 -252h-123z" />
    <glyph glyph-name="x" unicode="x" horiz-adv-x="535" 
d="M8 0l187 272l-167 241h155l91 -147h2l86 147h141l-159 -240l183 -273h-162l-95 170h-2l-111 -170h-149z" />
    <glyph glyph-name="y" unicode="y" horiz-adv-x="497" 
d="M55 -168v107h48q76 0 76 70q0 35 -39 139l-138 365h143l76 -231q5 -14 12.5 -41t9.5 -33q2 -9 11 -38h2q2 7 5 19.5t4 18.5q7 32 21 74l72 231h137l-179 -526q-31 -89 -68 -122t-113 -33h-80z" />
    <glyph glyph-name="z" unicode="z" horiz-adv-x="485" 
d="M27 0v104l264 299v3h-234v107h392v-109l-258 -292v-3h271v-109h-435z" />
    <glyph glyph-name="braceleft" unicode="{" horiz-adv-x="382" 
d="M350 -131h-32q-109 0 -159.5 40.5t-50.5 144.5v132q0 39 -18.5 57t-64.5 20v100q46 2 64.5 20t18.5 57v130q0 104 50.5 144t159.5 40h32v-106h-27q-45 0 -64.5 -16t-19.5 -62v-152q0 -45 -14 -68t-46 -35v-3q32 -12 46 -35.5t14 -67.5v-155q0 -46 19.5 -62.5t64.5 -16.5
h27v-106z" />
    <glyph glyph-name="bar" unicode="|" horiz-adv-x="210" 
d="M64 -131v885h83v-885h-83z" />
    <glyph glyph-name="braceright" unicode="}" horiz-adv-x="382" 
d="M32 -131v106h27q45 0 64.5 16t19.5 62v155q0 45 14 68t46 35v3q-32 12 -46 35.5t-14 67.5v152q0 46 -19.5 62.5t-64.5 16.5h-27v106h32q109 0 159.5 -40.5t50.5 -144.5v-129q0 -39 18.5 -57t64.5 -20v-100q-46 -2 -64.5 -20t-18.5 -57v-133q0 -104 -50.5 -144t-159.5 -40
h-32z" />
    <glyph glyph-name="asciitilde" unicode="~" horiz-adv-x="426" 
d="M122 250h-90q1 78 32 117t82 39q31 0 77 -18.5t60 -18.5q18 0 25.5 8t9.5 28h90q-2 -152 -109 -152q-31 0 -80.5 18t-61.5 18q-31 0 -35 -39z" />
    <glyph glyph-name="uni00A0" unicode="&#xa0;" horiz-adv-x="168" 
 />
    <glyph glyph-name="exclamdown" unicode="&#xa1;" horiz-adv-x="254" 
d="M56 -127v158l38 348h66l38 -348v-158h-142zM54 443v145h146v-145h-146z" />
    <glyph glyph-name="cent" unicode="&#xa2;" horiz-adv-x="525" 
d="M248 -100v87q-104 12 -166.5 86.5t-62.5 182.5q0 110 62.5 184.5t166.5 84.5v68h60v-68q83 -9 135 -59t65 -127h-133q-13 58 -67 75v-317q62 14 74 84h131q-6 -78 -61.5 -132.5t-143.5 -62.5v-86h-60zM157 256q0 -137 91 -159v317q-44 -11 -67.5 -52.5t-23.5 -105.5z" />
    <glyph glyph-name="sterling" unicode="&#xa3;" horiz-adv-x="579" 
d="M31 290v87h45q-31 60 -31 115q0 91 67.5 149t186.5 58q113 0 181 -58q71 -60 75 -187h-136q-1 69 -33 101.5t-86 32.5q-53 0 -81 -27t-28 -73q0 -37 35 -111h147v-87h-117q2 -18 2 -27q0 -78 -79 -137l2 -2q52 18 77 18q39 0 80.5 -15t67.5 -15q49 0 98 43l62 -107
q-71 -62 -159 -62q-51 0 -111.5 23.5t-96.5 23.5q-19 0 -39 -7t-30.5 -13.5t-32.5 -20.5l-70 104q96 63 96 146q0 22 -7 48h-85z" />
    <glyph glyph-name="currency" unicode="&#xa4;" horiz-adv-x="512" 
d="M256 146q-54 0 -92 19l-66 -67l-84 82l64 64q-25 46 -25 105q0 58 25 104l-64 66l84 82l65 -68q43 20 93 20q49 0 92 -20l66 68l84 -82l-66 -66q26 -47 26 -104q0 -58 -25 -104l65 -65l-84 -82l-66 67q-42 -19 -92 -19zM256 238q41 0 63.5 29.5t22.5 81.5t-22.5 82
t-63.5 30q-42 0 -65.5 -30t-23.5 -82t23.5 -81.5t65.5 -29.5z" />
    <glyph glyph-name="yen" unicode="&#xa5;" horiz-adv-x="618" 
d="M68 263v59h147l-211 364h156l108 -202l14.5 -29l13.5 -27q1 -2 13 -29h2q12 27 13 29q17 35 28 56l107 202h152l-212 -364h150v-59h-174v-63h174v-59h-174v-141h-133v141h-174v59h174v63h-174z" />
    <glyph glyph-name="brokenbar" unicode="&#xa6;" horiz-adv-x="210" 
d="M64 -131v392h83v-392h-83zM64 375v379h83v-379h-83z" />
    <glyph glyph-name="section" unicode="&#xa7;" horiz-adv-x="591" 
d="M306 -171q-115 0 -179 59t-66 148h132q2 -47 30.5 -73.5t74.5 -26.5q37 0 59.5 18t22.5 45q0 10 -2.5 18t-10 15.5t-14 12.5t-22.5 12.5t-27 12t-35.5 14t-40.5 16.5q-108 43 -156 86t-48 113q0 97 120 132q-31 21 -45.5 47.5t-14.5 67.5q0 71 58 112t149 41
q99 0 155 -47.5t62 -128.5h-123q-11 74 -90 74q-76 0 -76 -51q0 -23 23 -37.5t86 -39.5q4 -1 6.5 -2t6 -2.5l7 -3t6.5 -2.5q108 -44 141 -66q71 -48 71 -126q0 -101 -112 -137q70 -45 70 -132q0 -80 -60.5 -124.5t-157.5 -44.5zM302 339q-78 31 -89 36q-56 -16 -56 -60
q0 -25 21 -40t100 -50q5 -3 8 -4q60 -29 87 -40q29 8 45.5 25t16.5 37q0 15 -9 28t-32.5 26t-39 20t-52.5 22z" />
    <glyph glyph-name="dieresis" unicode="&#xa8;" 
d="M297 581v114h128v-114h-128zM74 581v114h128v-114h-128z" />
    <glyph glyph-name="copyright" unicode="&#xa9;" horiz-adv-x="815" 
d="M408 -17q-156 0 -262 106.5t-106 265.5q0 160 106.5 266.5t261.5 106.5t261 -106.5t106 -266.5q0 -159 -106 -265.5t-261 -106.5zM408 32q132 0 220.5 92t88.5 231t-88.5 231t-220.5 92q-133 0 -221.5 -92t-88.5 -231t88.5 -231t221.5 -92zM411 133q-95 0 -154.5 63.5
t-59.5 161.5q0 100 58.5 163.5t156.5 63.5q80 0 130 -44t59 -114h-108q-5 29 -26.5 47t-55.5 18q-49 0 -75 -37t-26 -97q0 -59 27.5 -96t74.5 -37q37 0 59 20.5t26 52.5h108q-5 -71 -53 -116q-49 -49 -141 -49z" />
    <glyph glyph-name="ordfeminine" unicode="&#xaa;" horiz-adv-x="497" 
d="M459 236h-122q-9 12 -15 50h-2q-43 -60 -130 -60q-70 0 -115 37t-45 103q0 69 48 101t137 43q59 7 82 17t23 33q0 51 -71 51q-78 0 -84 -61h-114q2 64 53 106.5t145 42.5q195 0 195 -166v-230q0 -51 15 -61v-6zM220 312q48 0 75.5 24.5t27.5 58.5v68q-23 -13 -80 -26
q-47 -10 -68 -25t-21 -43q0 -57 66 -57z" />
    <glyph glyph-name="guillemotleft" unicode="&#xab;" horiz-adv-x="447" 
d="M388 59l-144 133v132l144 133v-128l-80 -71v-2l80 -71v-126zM198 59l-144 133v132l144 133v-128l-80 -71v-2l80 -71v-126z" />
    <glyph glyph-name="logicalnot" unicode="&#xac;" horiz-adv-x="513" 
d="M35 318v100h423v-273h-104v173h-319z" />
    <glyph glyph-name="uni00AD" unicode="&#xad;" horiz-adv-x="339" 
d="M34 189v117h271v-117h-271z" />
    <glyph glyph-name="registered" unicode="&#xae;" horiz-adv-x="530" 
d="M265 244q-101 0 -170 69t-69 173t69 173t170 69t170 -69t69 -173t-69 -173t-170 -69zM265 281q84 0 139.5 58.5t55.5 146.5t-55 146t-140 58q-84 0 -139.5 -58t-55.5 -146t55.5 -146.5t139.5 -58.5zM163 360v256h124q40 0 66 -20t26 -55q0 -46 -44 -61v-2q30 -9 38 -46
q3 -12 3.5 -29t2 -26.5t6.5 -11.5v-5h-68q-4 2 -11 59q-3 34 -40 34h-34v-93h-69zM232 561v-58h43q36 0 36 29t-36 29h-43z" />
    <glyph glyph-name="macron" unicode="&#xaf;" 
d="M113 592v97h284v-97h-284z" />
    <glyph glyph-name="degree" unicode="&#xb0;" horiz-adv-x="356" 
d="M178 418q-60 0 -103 40.5t-43 99.5t43 100.5t103 41.5t103 -41.5t43 -100.5t-43 -99.5t-103 -40.5zM178 481q33 0 53.5 22t20.5 55t-20.5 56t-53.5 23t-53 -23t-20 -56t20 -55t53 -22z" />
    <glyph glyph-name="plusminus" unicode="&#xb1;" horiz-adv-x="569" 
d="M35 318v100h197v163h104v-163h198v-100h-198v-163h-104v163h-197zM35 0v100h499v-100h-499z" />
    <glyph glyph-name="twosuperior" unicode="&#xb2;" horiz-adv-x="372" 
d="M344 318h-318q1 96 96 162q17 12 45.5 30t39.5 26.5t21.5 23.5t10.5 32q0 49 -49 49q-28 0 -44.5 -19t-16.5 -54h-97q0 74 42.5 114.5t118.5 40.5q69 0 109 -36.5t40 -90.5q0 -41 -19 -67t-56 -53q-13 -9 -38 -24.5t-41 -27.5t-25 -24h181v-82z" />
    <glyph glyph-name="threesuperior" unicode="&#xb3;" horiz-adv-x="374" 
d="M188 309q-84 0 -126 38t-43 106h103q2 -68 64 -68q57 0 57 52q0 51 -63 51h-24v72h21q57 0 57 45q0 43 -47 43q-51 0 -56 -57h-100q2 59 44 95.5t115 36.5q67 0 108 -30t41 -82t-61 -78v-2q74 -26 74 -98q0 -61 -46.5 -92.5t-117.5 -31.5z" />
    <glyph glyph-name="acute" unicode="&#xb4;" 
d="M397 718l-108 -141h-106l55 141h159z" />
    <glyph glyph-name="mu" unicode="&#xb5;" horiz-adv-x="547" 
d="M44 -168v681h135v-319q0 -93 85 -93q47 0 75 32t28 84v296h136v-513h-131v60h-3q-52 -74 -129 -74q-35 0 -58 16h-3v-170h-135z" />
    <glyph glyph-name="paragraph" unicode="&#xb6;" horiz-adv-x="578" 
d="M274 341h-53q-90 0 -142 50.5t-52 135.5q0 84 56 138q53 50 149 50h291v-715h-90v634h-69v-634h-90v341z" />
    <glyph glyph-name="periodcentered" unicode="&#xb7;" horiz-adv-x="218" 
d="M36 243v145h146v-145h-146z" />
    <glyph glyph-name="cedilla" unicode="&#xb8;" 
d="M223 -192q-60 0 -106 29l18 32q33 -15 70 -15q57 0 57 31q0 29 -41 29q-18 0 -37 -7l-16 22l71 71h59l-60 -50v-2q43 6 74.5 -10t31.5 -54q0 -35 -34 -55.5t-87 -20.5z" />
    <glyph glyph-name="onesuperior" unicode="&#xb9;" horiz-adv-x="267" 
d="M113 318v249h-91v71q94 5 110 80h85v-400h-104z" />
    <glyph glyph-name="ordmasculine" unicode="&#xba;" horiz-adv-x="523" 
d="M262 222q-106 0 -172 68t-66 170q0 103 66 171t172 68q105 0 171 -68t66 -171q0 -101 -66 -169.5t-171 -68.5zM262 317q52 0 80 39t28 104t-28 104.5t-80 39.5q-53 0 -81 -39.5t-28 -104.5t28 -104t81 -39z" />
    <glyph glyph-name="guillemotright" unicode="&#xbb;" horiz-adv-x="447" 
d="M59 457l144 -133v-132l-144 -133v128l80 71v2l-80 71v126zM249 457l144 -133v-132l-144 -133v128l80 71v2l-80 71v126z" />
    <glyph glyph-name="onequarter" unicode="&#xbc;" horiz-adv-x="821" 
d="M116 318v249h-91v71q94 5 110 80h85v-400h-104zM105 0l496 715h90l-497 -715h-89zM634 0v84h-189v91l188 227h103v-242h59v-76h-59v-84h-102zM524 161v-1h110v133h-1z" />
    <glyph glyph-name="onehalf" unicode="&#xbd;" horiz-adv-x="827" 
d="M116 318v249h-91v71q94 5 110 80h85v-400h-104zM88 0l496 715h90l-497 -715h-89zM796 0h-318q1 96 96 162q17 12 45.5 30t39.5 26.5t21.5 23.5t10.5 32q0 49 -49 49q-28 0 -44.5 -19t-16.5 -54h-97q0 74 42.5 114.5t118.5 40.5q69 0 109 -36.5t40 -90.5q0 -70 -72 -122
q-14 -10 -38.5 -25t-41 -26.5t-25.5 -22.5h179v-82z" />
    <glyph glyph-name="threequarters" unicode="&#xbe;" horiz-adv-x="864" 
d="M191 309q-84 0 -126 38t-43 106h103q2 -68 64 -68q57 0 57 52q0 51 -63 51h-24v72h21q57 0 57 45q0 43 -47 43q-51 0 -56 -57h-100q2 59 44 95.5t115 36.5q67 0 108 -30t41 -82t-61 -78v-2q74 -26 74 -98q0 -61 -46.5 -92.5t-117.5 -31.5zM169 0l496 715h90l-497 -715
h-89zM677 0v84h-189v91l188 227h103v-242h59v-76h-59v-84h-102zM567 161v-1h110v133h-1z" />
    <glyph glyph-name="questiondown" unicode="&#xbf;" horiz-adv-x="525" 
d="M259 -140q-112 0 -177.5 59t-65.5 150q0 46 16.5 82t33 52.5t45.5 37.5q9 7 29 21.5t25.5 19t18 15t15.5 16.5l8.5 17t6.5 22.5t1 26.5h122q0 -42 -6.5 -71.5t-23.5 -52t-31 -34t-43 -32.5q-2 -2 -12.5 -9.5t-12.5 -9t-11 -8.5t-11.5 -10t-9 -10t-8.5 -11.5t-6.5 -11.5
t-5.5 -13.5t-2.5 -15t-1.5 -17.5q0 -45 29.5 -71.5t76.5 -26.5q57 0 90.5 33t34.5 92h129q-2 -104 -68.5 -172t-184.5 -68zM203 443v145h146v-145h-146z" />
    <glyph glyph-name="Agrave" unicode="&#xc0;" horiz-adv-x="659" 
d="M3 0l249 715h150l252 -715h-151l-48 152h-258l-47 -152h-147zM295 469l-64 -206h189l-64 206q-4 11 -10 35.5t-9 33.5q-1 5 -4.5 19l-5.5 22h-2q-8 -28 -11 -41q-3 -9 -9 -33.5t-10 -35.5zM279 753l-95 125h159l42 -125h-106z" />
    <glyph glyph-name="Aacute" unicode="&#xc1;" horiz-adv-x="659" 
d="M3 0l249 715h150l252 -715h-151l-48 152h-258l-47 -152h-147zM295 469l-64 -206h189l-64 206q-4 11 -10 35.5t-9 33.5q-1 5 -4.5 19l-5.5 22h-2q-8 -28 -11 -41q-3 -9 -9 -33.5t-10 -35.5zM474 878l-95 -125h-106l42 125h159z" />
    <glyph glyph-name="Acircumflex" unicode="&#xc2;" horiz-adv-x="659" 
d="M3 0l249 715h150l252 -715h-151l-48 152h-258l-47 -152h-147zM295 469l-64 -206h189l-64 206q-4 11 -10 35.5t-9 33.5q-1 5 -4.5 19l-5.5 22h-2q-8 -28 -11 -41q-3 -9 -9 -33.5t-10 -35.5zM159 753l94 114h146l96 -114h-118l-48 57h-2l-49 -57h-119z" />
    <glyph glyph-name="Atilde" unicode="&#xc3;" horiz-adv-x="659" 
d="M3 0l249 715h150l252 -715h-151l-48 152h-258l-47 -152h-147zM295 469l-64 -206h189l-64 206q-4 11 -10 35.5t-9 33.5q-1 5 -4.5 19l-5.5 22h-2q-8 -28 -11 -41q-3 -9 -9 -33.5t-10 -35.5zM385 755q-27 0 -62.5 16.5t-46.5 16.5q-23 0 -27 -31h-72q0 57 25 87.5t65 30.5
q27 0 62.5 -17.5t46.5 -17.5q22 0 29 31h72q0 -52 -24.5 -84t-67.5 -32z" />
    <glyph glyph-name="Adieresis" unicode="&#xc4;" horiz-adv-x="659" 
d="M3 0l249 715h150l252 -715h-151l-48 152h-258l-47 -152h-147zM295 469l-64 -206h189l-64 206q-4 11 -10 35.5t-9 33.5q-1 5 -4.5 19l-5.5 22h-2q-8 -28 -11 -41q-3 -9 -9 -33.5t-10 -35.5zM365 753v114h128v-114h-128zM162 753v114h128v-114h-128z" />
    <glyph glyph-name="Aring" unicode="&#xc5;" horiz-adv-x="659" 
d="M3 0l249 715h150l252 -715h-151l-48 152h-258l-47 -152h-147zM295 469l-64 -206h189l-64 206q-4 11 -10 35.5t-9 33.5q-1 5 -4.5 19l-5.5 22h-2q-8 -28 -11 -41q-3 -9 -9 -33.5t-10 -35.5zM327 742q-40 0 -68.5 27.5t-28.5 66.5t28.5 66.5t68.5 27.5t68.5 -27.5
t28.5 -66.5t-28.5 -66.5t-68.5 -27.5zM327 789q20 0 32.5 13.5t12.5 33.5t-12.5 33.5t-32.5 13.5t-32.5 -13.5t-12.5 -33.5t12.5 -33.5t32.5 -13.5z" />
    <glyph glyph-name="AE" unicode="&#xc6;" horiz-adv-x="972" 
d="M4 0l248 715h677v-125h-354v-161h306v-117h-306v-181h365v-131h-514v152h-224l-51 -152h-147zM349 590l-111 -331h188v331h-77z" />
    <glyph glyph-name="Ccedilla" unicode="&#xc7;" horiz-adv-x="684" 
d="M331 -192q-60 0 -106 29l18 32q33 -15 70 -15q57 0 57 31q0 29 -41 29q-18 0 -37 -7l-16 22l57 58q-137 12 -223 114t-86 254q0 162 94 268t249 106q128 0 205 -67.5t90 -173.5h-144q-10 55 -49.5 87t-101.5 32q-95 0 -145 -70.5t-50 -181.5q0 -112 53 -181.5t143 -69.5
q64 0 105.5 34.5t48.5 91.5h142q-6 -101 -79 -169q-76 -69 -197 -75l-42 -36v-2q43 6 74.5 -10t31.5 -54q0 -35 -34 -55.5t-87 -20.5z" />
    <glyph glyph-name="Egrave" unicode="&#xc8;" horiz-adv-x="619" 
d="M55 0v715h526v-122h-381v-160h334v-119h-334v-193h384v-121h-529zM277 753l-95 125h159l42 -125h-106z" />
    <glyph glyph-name="Eacute" unicode="&#xc9;" horiz-adv-x="619" 
d="M55 0v715h526v-122h-381v-160h334v-119h-334v-193h384v-121h-529zM472 878l-95 -125h-106l42 125h159z" />
    <glyph glyph-name="Ecircumflex" unicode="&#xca;" horiz-adv-x="619" 
d="M55 0v715h526v-122h-381v-160h334v-119h-334v-193h384v-121h-529zM157 753l94 114h146l96 -114h-118l-48 57h-2l-49 -57h-119z" />
    <glyph glyph-name="Edieresis" unicode="&#xcb;" horiz-adv-x="619" 
d="M55 0v715h526v-122h-381v-160h334v-119h-334v-193h384v-121h-529zM363 753v114h128v-114h-128zM160 753v114h128v-114h-128z" />
    <glyph glyph-name="Igrave" unicode="&#xcc;" horiz-adv-x="257" 
d="M56 0v715h145v-715h-145zM80 753l-95 125h159l42 -125h-106z" />
    <glyph glyph-name="Iacute" unicode="&#xcd;" horiz-adv-x="257" 
d="M56 0v715h145v-715h-145zM275 878l-95 -125h-106l42 125h159z" />
    <glyph glyph-name="Icircumflex" unicode="&#xce;" horiz-adv-x="257" 
d="M56 0v715h145v-715h-145zM-40 753l94 114h146l96 -114h-118l-48 57h-2l-49 -57h-119z" />
    <glyph glyph-name="Idieresis" unicode="&#xcf;" horiz-adv-x="257" 
d="M56 0v715h145v-715h-145zM166 753v114h128v-114h-128zM-37 753v114h128v-114h-128z" />
    <glyph glyph-name="Eth" unicode="&#xd0;" horiz-adv-x="682" 
d="M1 304v117h64v294h279q142 0 228 -102.5t86 -262.5q0 -185 -114 -281q-83 -69 -212 -69h-267v304h-64zM210 125h112q99 0 144 57t45 168q0 110 -47.5 175.5t-137.5 65.5h-116v-170h165v-117h-165v-179z" />
    <glyph glyph-name="Ntilde" unicode="&#xd1;" horiz-adv-x="686" 
d="M55 0v715h147l238 -399q6 -10 17.5 -32.5t16.5 -32.5q1 -2 16 -35h2q-1 7 -1.5 21.5t-0.5 21.5q-2 50 -2 81v375h143v-715h-140l-244 395q-7 11 -19 34.5t-15 29.5q-12 24 -17 35h-2q0 -7 1 -21.5t1 -22.5q2 -50 2 -81v-369h-143zM408 755q-27 0 -62.5 16.5t-46.5 16.5
q-23 0 -27 -31h-72q0 57 25 87.5t65 30.5q27 0 62.5 -17.5t46.5 -17.5q22 0 29 31h72q0 -52 -24.5 -84t-67.5 -32z" />
    <glyph glyph-name="Ograve" unicode="&#xd2;" horiz-adv-x="737" 
d="M369 -16q-157 0 -251 104.5t-94 267.5t94 268t251 105q156 0 250 -105t94 -268t-94 -267.5t-250 -104.5zM370 103q95 0 145 70.5t50 182.5t-50 183t-145 71t-146.5 -71t-51.5 -183q0 -111 51.5 -182t146.5 -71zM320 753l-95 125h159l42 -125h-106z" />
    <glyph glyph-name="Oacute" unicode="&#xd3;" horiz-adv-x="737" 
d="M369 -16q-157 0 -251 104.5t-94 267.5t94 268t251 105q156 0 250 -105t94 -268t-94 -267.5t-250 -104.5zM370 103q95 0 145 70.5t50 182.5t-50 183t-145 71t-146.5 -71t-51.5 -183q0 -111 51.5 -182t146.5 -71zM515 878l-95 -125h-106l42 125h159z" />
    <glyph glyph-name="Ocircumflex" unicode="&#xd4;" horiz-adv-x="737" 
d="M369 -16q-157 0 -251 104.5t-94 267.5t94 268t251 105q156 0 250 -105t94 -268t-94 -267.5t-250 -104.5zM370 103q95 0 145 70.5t50 182.5t-50 183t-145 71t-146.5 -71t-51.5 -183q0 -111 51.5 -182t146.5 -71zM200 753l94 114h146l96 -114h-118l-48 57h-2l-49 -57h-119z
" />
    <glyph glyph-name="Otilde" unicode="&#xd5;" horiz-adv-x="737" 
d="M369 -16q-157 0 -251 104.5t-94 267.5t94 268t251 105q156 0 250 -105t94 -268t-94 -267.5t-250 -104.5zM370 103q95 0 145 70.5t50 182.5t-50 183t-145 71t-146.5 -71t-51.5 -183q0 -111 51.5 -182t146.5 -71zM426 755q-27 0 -62.5 16.5t-46.5 16.5q-23 0 -27 -31h-72
q0 57 25 87.5t65 30.5q27 0 62.5 -17.5t46.5 -17.5q22 0 29 31h72q0 -52 -24.5 -84t-67.5 -32z" />
    <glyph glyph-name="Odieresis" unicode="&#xd6;" horiz-adv-x="737" 
d="M369 -16q-157 0 -251 104.5t-94 267.5t94 268t251 105q156 0 250 -105t94 -268t-94 -267.5t-250 -104.5zM370 103q95 0 145 70.5t50 182.5t-50 183t-145 71t-146.5 -71t-51.5 -183q0 -111 51.5 -182t146.5 -71zM406 753v114h128v-114h-128zM203 753v114h128v-114h-128z
" />
    <glyph glyph-name="multiply" unicode="&#xd7;" horiz-adv-x="568" 
d="M121 85l-70 66l166 171l-166 171l70 66l163 -168l163 168l70 -66l-166 -171l166 -171l-70 -66l-163 168z" />
    <glyph glyph-name="Oslash" unicode="&#xd8;" horiz-adv-x="737" 
d="M79 -21l-49 42l74 84q-80 100 -80 251q0 163 94 268t251 105q131 0 222 -78l66 74l49 -42l-71 -79q78 -99 78 -248q0 -163 -94 -267.5t-250 -104.5q-129 0 -219 74zM172 356q0 -84 28 -144l304 341q-51 57 -134 57q-95 0 -146.5 -71t-51.5 -183zM370 103q95 0 145 70.5
t50 182.5q0 77 -26 140l-301 -339q49 -54 132 -54z" />
    <glyph glyph-name="Ugrave" unicode="&#xd9;" horiz-adv-x="657" 
d="M331 -12q-139 0 -210.5 62t-71.5 180v485h145v-485q0 -126 134 -126q67 0 101 34.5t34 93.5v483h145v-485q0 -116 -70.5 -179t-206.5 -63zM279 753l-95 125h159l42 -125h-106z" />
    <glyph glyph-name="Uacute" unicode="&#xda;" horiz-adv-x="657" 
d="M331 -12q-139 0 -210.5 62t-71.5 180v485h145v-485q0 -126 134 -126q67 0 101 34.5t34 93.5v483h145v-485q0 -116 -70.5 -179t-206.5 -63zM474 878l-95 -125h-106l42 125h159z" />
    <glyph glyph-name="Ucircumflex" unicode="&#xdb;" horiz-adv-x="657" 
d="M331 -12q-139 0 -210.5 62t-71.5 180v485h145v-485q0 -126 134 -126q67 0 101 34.5t34 93.5v483h145v-485q0 -116 -70.5 -179t-206.5 -63zM159 753l94 114h146l96 -114h-118l-48 57h-2l-49 -57h-119z" />
    <glyph glyph-name="Udieresis" unicode="&#xdc;" horiz-adv-x="657" 
d="M331 -12q-139 0 -210.5 62t-71.5 180v485h145v-485q0 -126 134 -126q67 0 101 34.5t34 93.5v483h145v-485q0 -116 -70.5 -179t-206.5 -63zM365 753v114h128v-114h-128zM162 753v114h128v-114h-128z" />
    <glyph glyph-name="Yacute" unicode="&#xdd;" horiz-adv-x="629" 
d="M242 0v276l-238 439h158l108 -212q31 -65 32 -67q10 -24 15 -35h2q1 1 7 14.5t9 20.5q1 2 32 67l106 212h152l-238 -439v-276h-145zM461 878l-95 -125h-106l42 125h159z" />
    <glyph glyph-name="Thorn" unicode="&#xde;" horiz-adv-x="633" 
d="M55 0v715h150v-109h164q123 -1 187 -67t64 -163q0 -102 -64 -164t-175 -62h-176v-150h-150zM357 480h-152v-212h150q56 0 86 28.5t30 78.5q0 51 -30 78t-84 27z" />
    <glyph glyph-name="germandbls" unicode="&#xdf;" horiz-adv-x="548" 
d="M298 -9q-36 0 -64 7v98h2q158 -19 158 138q0 138 -128 138h-31v83h26q103 0 103 88q0 39 -22 62t-63 23q-99 0 -99 -106v-522h-136v524q0 94 63 149.5t171 55.5q98 0 156.5 -49t58.5 -133q0 -90 -92 -126v-3q64 -20 96 -69.5t32 -118.5q0 -116 -64 -177.5t-167 -61.5z
" />
    <glyph glyph-name="agrave" unicode="&#xe0;" horiz-adv-x="522" 
d="M498 0h-131q-10 14 -16 57h-2q-22 -33 -56 -51t-95 -18q-81 0 -130 41t-49 116q0 78 54 114.5t152 50.5q72 10 98 20.5t26 37.5q0 28 -22 44.5t-64 16.5q-93 0 -99 -72h-121q2 72 59 120.5t162 48.5q216 0 216 -189v-261q0 -58 18 -71v-5zM231 83q55 0 88 29t33 69v77
q-21 -13 -95 -30q-58 -13 -82 -29.5t-24 -50.5q0 -65 80 -65zM217 577l-108 141h159l55 -141h-106z" />
    <glyph glyph-name="aacute" unicode="&#xe1;" horiz-adv-x="522" 
d="M498 0h-131q-10 14 -16 57h-2q-22 -33 -56 -51t-95 -18q-81 0 -130 41t-49 116q0 78 54 114.5t152 50.5q72 10 98 20.5t26 37.5q0 28 -22 44.5t-64 16.5q-93 0 -99 -72h-121q2 72 59 120.5t162 48.5q216 0 216 -189v-261q0 -58 18 -71v-5zM231 83q55 0 88 29t33 69v77
q-21 -13 -95 -30q-58 -13 -82 -29.5t-24 -50.5q0 -65 80 -65zM425 718l-108 -141h-106l55 141h159z" />
    <glyph glyph-name="acircumflex" unicode="&#xe2;" horiz-adv-x="522" 
d="M498 0h-131q-10 14 -16 57h-2q-22 -33 -56 -51t-95 -18q-81 0 -130 41t-49 116q0 78 54 114.5t152 50.5q72 10 98 20.5t26 37.5q0 28 -22 44.5t-64 16.5q-93 0 -99 -72h-121q2 72 59 120.5t162 48.5q216 0 216 -189v-261q0 -58 18 -71v-5zM231 83q55 0 88 29t33 69v77
q-21 -13 -95 -30q-58 -13 -82 -29.5t-24 -50.5q0 -65 80 -65zM97 581l94 126h146l96 -126h-118l-48 69h-2l-49 -69h-119z" />
    <glyph glyph-name="atilde" unicode="&#xe3;" horiz-adv-x="522" 
d="M498 0h-131q-10 14 -16 57h-2q-22 -33 -56 -51t-95 -18q-81 0 -130 41t-49 116q0 78 54 114.5t152 50.5q72 10 98 20.5t26 37.5q0 28 -22 44.5t-64 16.5q-93 0 -99 -72h-121q2 72 59 120.5t162 48.5q216 0 216 -189v-261q0 -58 18 -71v-5zM231 83q55 0 88 29t33 69v77
q-21 -13 -95 -30q-58 -13 -82 -29.5t-24 -50.5q0 -65 80 -65zM323 575q-27 0 -62.5 16.5t-46.5 16.5q-23 0 -27 -31h-72q0 57 25 87.5t65 30.5q27 0 62.5 -17.5t46.5 -17.5q22 0 29 31h72q0 -52 -24.5 -84t-67.5 -32z" />
    <glyph glyph-name="adieresis" unicode="&#xe4;" horiz-adv-x="522" 
d="M498 0h-131q-10 14 -16 57h-2q-22 -33 -56 -51t-95 -18q-81 0 -130 41t-49 116q0 78 54 114.5t152 50.5q72 10 98 20.5t26 37.5q0 28 -22 44.5t-64 16.5q-93 0 -99 -72h-121q2 72 59 120.5t162 48.5q216 0 216 -189v-261q0 -58 18 -71v-5zM231 83q55 0 88 29t33 69v77
q-21 -13 -95 -30q-58 -13 -82 -29.5t-24 -50.5q0 -65 80 -65zM313 581v114h128v-114h-128zM90 581v114h128v-114h-128z" />
    <glyph glyph-name="aring" unicode="&#xe5;" horiz-adv-x="522" 
d="M498 0h-131q-10 14 -16 57h-2q-22 -33 -56 -51t-95 -18q-81 0 -130 41t-49 116q0 78 54 114.5t152 50.5q72 10 98 20.5t26 37.5q0 28 -22 44.5t-64 16.5q-93 0 -99 -72h-121q2 72 59 120.5t162 48.5q216 0 216 -189v-261q0 -58 18 -71v-5zM231 83q55 0 88 29t33 69v77
q-21 -13 -95 -30q-58 -13 -82 -29.5t-24 -50.5q0 -65 80 -65zM265 561q-40 0 -68.5 27.5t-28.5 66.5t28.5 66.5t68.5 27.5t68.5 -27.5t28.5 -66.5t-28.5 -66.5t-68.5 -27.5zM265 608q20 0 32.5 13.5t12.5 33.5t-12.5 33.5t-32.5 13.5t-32.5 -13.5t-12.5 -33.5t12.5 -33.5
t32.5 -13.5z" />
    <glyph glyph-name="ae" unicode="&#xe6;" horiz-adv-x="872" 
d="M613 -15q-131 0 -201 87h-3q-44 -46 -87.5 -65t-115.5 -19q-85 0 -136 41t-51 116q0 78 54 114.5t152 50.5q72 10 98 20.5t26 37.5q0 28 -22 44.5t-64 16.5q-93 0 -99 -72h-121q2 72 59 120.5t162 48.5q121 0 174 -59q66 60 162 60q120 0 186.5 -84.5t66.5 -224.5h-372
q18 -128 131 -128q75 0 99 63h134q-15 -72 -76 -120t-156 -48zM602 422q-100 0 -119 -110h228q-3 49 -32.5 79.5t-76.5 30.5zM231 83q55 0 88 29t33 69v77q-21 -13 -95 -30q-58 -13 -82 -29.5t-24 -50.5q0 -65 80 -65z" />
    <glyph glyph-name="ccedilla" unicode="&#xe7;" horiz-adv-x="528" 
d="M248 -192q-60 0 -106 29l18 32q33 -15 70 -15q57 0 57 31q0 29 -41 29q-18 0 -37 -7l-16 22l57 58q-106 10 -168.5 85t-62.5 184q0 116 70.5 193.5t185.5 77.5q97 0 157.5 -51t75.5 -137h-133q-7 35 -32 57t-62 22q-61 0 -92.5 -42.5t-31.5 -119.5q0 -76 30.5 -119
t91.5 -43q90 0 103 87h131q-7 -80 -61.5 -133.5t-145.5 -61.5l-43 -36v-2q43 6 74.5 -10t31.5 -54q0 -35 -34 -55.5t-87 -20.5z" />
    <glyph glyph-name="egrave" unicode="&#xe8;" horiz-adv-x="544" 
d="M285 -15q-125 0 -195.5 76.5t-70.5 195.5q0 115 71 192.5t182 77.5q120 0 186.5 -84.5t66.5 -224.5h-372q18 -128 131 -128q75 0 99 63h134q-15 -72 -76 -120t-156 -48zM274 422q-100 0 -119 -110h228q-3 49 -32.5 79.5t-76.5 30.5zM224 577l-108 141h159l55 -141h-106z
" />
    <glyph glyph-name="eacute" unicode="&#xe9;" horiz-adv-x="544" 
d="M285 -15q-125 0 -195.5 76.5t-70.5 195.5q0 115 71 192.5t182 77.5q120 0 186.5 -84.5t66.5 -224.5h-372q18 -128 131 -128q75 0 99 63h134q-15 -72 -76 -120t-156 -48zM274 422q-100 0 -119 -110h228q-3 49 -32.5 79.5t-76.5 30.5zM432 718l-108 -141h-106l55 141h159z
" />
    <glyph glyph-name="ecircumflex" unicode="&#xea;" horiz-adv-x="544" 
d="M285 -15q-125 0 -195.5 76.5t-70.5 195.5q0 115 71 192.5t182 77.5q120 0 186.5 -84.5t66.5 -224.5h-372q18 -128 131 -128q75 0 99 63h134q-15 -72 -76 -120t-156 -48zM274 422q-100 0 -119 -110h228q-3 49 -32.5 79.5t-76.5 30.5zM104 581l94 126h146l96 -126h-118
l-48 69h-2l-49 -69h-119z" />
    <glyph glyph-name="edieresis" unicode="&#xeb;" horiz-adv-x="544" 
d="M285 -15q-125 0 -195.5 76.5t-70.5 195.5q0 115 71 192.5t182 77.5q120 0 186.5 -84.5t66.5 -224.5h-372q18 -128 131 -128q75 0 99 63h134q-15 -72 -76 -120t-156 -48zM274 422q-100 0 -119 -110h228q-3 49 -32.5 79.5t-76.5 30.5zM320 581v114h128v-114h-128zM97 581
v114h128v-114h-128z" />
    <glyph glyph-name="igrave" unicode="&#xec;" horiz-adv-x="224" 
d="M44 0v513h136v-513h-136zM64 577l-108 141h159l55 -141h-106z" />
    <glyph glyph-name="iacute" unicode="&#xed;" horiz-adv-x="224" 
d="M44 0v513h136v-513h-136zM272 718l-108 -141h-106l55 141h159z" />
    <glyph glyph-name="icircumflex" unicode="&#xee;" horiz-adv-x="224" 
d="M44 0v513h136v-513h-136zM-30 581l71 126h139l73 -126h-107l-32 66h-2l-34 -66h-108z" />
    <glyph glyph-name="idieresis" unicode="&#xef;" horiz-adv-x="224" 
d="M44 0v513h136v-513h-136zM130 581v114h108v-114h-108zM-13 581v114h108v-114h-108z" />
    <glyph glyph-name="eth" unicode="&#xf0;" horiz-adv-x="571" 
d="M144 592l116 36q-49 45 -110 87h164q35 -23 65 -50l106 33l22 -50l-84 -26q127 -146 127 -350q0 -79 -26.5 -142t-87.5 -104t-149 -41q-118 0 -193 77.5t-75 193.5t65.5 189.5t172.5 73.5q76 0 126 -56h2q-30 67 -82 122l-138 -43zM287 89q62 0 96 45.5t34 121.5t-34 121
t-96 45t-96 -45t-34 -121t34 -121.5t96 -45.5z" />
    <glyph glyph-name="ntilde" unicode="&#xf1;" horiz-adv-x="549" 
d="M177 513v-70h3q52 84 152 84q79 0 128 -54t49 -138v-335h-136v315q0 43 -23.5 68.5t-65.5 25.5q-45 0 -74.5 -32.5t-29.5 -85.5v-291h-136v513h133zM334 575q-27 0 -62.5 16.5t-46.5 16.5q-23 0 -27 -31h-72q0 57 25 87.5t65 30.5q27 0 62.5 -17.5t46.5 -17.5q22 0 29 31
h72q0 -52 -24.5 -84t-67.5 -32z" />
    <glyph glyph-name="ograve" unicode="&#xf2;" horiz-adv-x="574" 
d="M287 -15q-118 0 -193 77.5t-75 193.5t75 193.5t193 77.5t193 -77.5t75 -193.5t-75 -193.5t-193 -77.5zM287 89q62 0 96 45.5t34 121.5q0 77 -34 122.5t-96 45.5t-96 -45.5t-34 -122.5q0 -76 34 -121.5t96 -45.5zM239 577l-108 141h159l55 -141h-106z" />
    <glyph glyph-name="oacute" unicode="&#xf3;" horiz-adv-x="574" 
d="M287 -15q-118 0 -193 77.5t-75 193.5t75 193.5t193 77.5t193 -77.5t75 -193.5t-75 -193.5t-193 -77.5zM287 89q62 0 96 45.5t34 121.5q0 77 -34 122.5t-96 45.5t-96 -45.5t-34 -122.5q0 -76 34 -121.5t96 -45.5zM447 718l-108 -141h-106l55 141h159z" />
    <glyph glyph-name="ocircumflex" unicode="&#xf4;" horiz-adv-x="574" 
d="M287 -15q-118 0 -193 77.5t-75 193.5t75 193.5t193 77.5t193 -77.5t75 -193.5t-75 -193.5t-193 -77.5zM287 89q62 0 96 45.5t34 121.5q0 77 -34 122.5t-96 45.5t-96 -45.5t-34 -122.5q0 -76 34 -121.5t96 -45.5zM119 581l94 126h146l96 -126h-118l-48 69h-2l-49 -69h-119
z" />
    <glyph glyph-name="otilde" unicode="&#xf5;" horiz-adv-x="574" 
d="M287 -15q-118 0 -193 77.5t-75 193.5t75 193.5t193 77.5t193 -77.5t75 -193.5t-75 -193.5t-193 -77.5zM287 89q62 0 96 45.5t34 121.5q0 77 -34 122.5t-96 45.5t-96 -45.5t-34 -122.5q0 -76 34 -121.5t96 -45.5zM345 575q-27 0 -62.5 16.5t-46.5 16.5q-23 0 -27 -31h-72
q0 57 25 87.5t65 30.5q27 0 62.5 -17.5t46.5 -17.5q22 0 29 31h72q0 -52 -24.5 -84t-67.5 -32z" />
    <glyph glyph-name="odieresis" unicode="&#xf6;" horiz-adv-x="574" 
d="M287 -15q-118 0 -193 77.5t-75 193.5t75 193.5t193 77.5t193 -77.5t75 -193.5t-75 -193.5t-193 -77.5zM287 89q62 0 96 45.5t34 121.5q0 77 -34 122.5t-96 45.5t-96 -45.5t-34 -122.5q0 -76 34 -121.5t96 -45.5zM335 581v114h128v-114h-128zM112 581v114h128v-114h-128z
" />
    <glyph glyph-name="divide" unicode="&#xf7;" horiz-adv-x="569" 
d="M211 74v133h146v-133h-146zM211 450v132h146v-132h-146zM35 278v100h499v-100h-499z" />
    <glyph glyph-name="oslash" unicode="&#xf8;" horiz-adv-x="574" 
d="M63 -36l-40 37l63 70q-67 75 -67 185q0 116 75 193.5t193 77.5q93 0 164 -53l61 67l39 -37l-60 -67q64 -75 64 -181q0 -116 -75 -193.5t-193 -77.5q-92 0 -160 49zM157 256q0 -52 15 -90l202 222q-34 36 -87 36q-62 0 -96 -45.5t-34 -122.5zM287 89q62 0 96 45.5
t34 121.5q0 45 -14 84l-199 -220q32 -31 83 -31z" />
    <glyph glyph-name="ugrave" unicode="&#xf9;" horiz-adv-x="543" 
d="M499 0h-131v60h-3q-28 -38 -61.5 -56t-85.5 -18q-85 0 -131.5 49.5t-46.5 135.5v342h135v-319q0 -93 85 -93q47 0 75 32t28 84v296h136v-513zM223 577l-108 141h159l55 -141h-106z" />
    <glyph glyph-name="uacute" unicode="&#xfa;" horiz-adv-x="543" 
d="M499 0h-131v60h-3q-28 -38 -61.5 -56t-85.5 -18q-85 0 -131.5 49.5t-46.5 135.5v342h135v-319q0 -93 85 -93q47 0 75 32t28 84v296h136v-513zM431 718l-108 -141h-106l55 141h159z" />
    <glyph glyph-name="ucircumflex" unicode="&#xfb;" horiz-adv-x="543" 
d="M499 0h-131v60h-3q-28 -38 -61.5 -56t-85.5 -18q-85 0 -131.5 49.5t-46.5 135.5v342h135v-319q0 -93 85 -93q47 0 75 32t28 84v296h136v-513zM103 581l94 126h146l96 -126h-118l-48 69h-2l-49 -69h-119z" />
    <glyph glyph-name="udieresis" unicode="&#xfc;" horiz-adv-x="543" 
d="M499 0h-131v60h-3q-28 -38 -61.5 -56t-85.5 -18q-85 0 -131.5 49.5t-46.5 135.5v342h135v-319q0 -93 85 -93q47 0 75 32t28 84v296h136v-513zM319 581v114h128v-114h-128zM96 581v114h128v-114h-128z" />
    <glyph glyph-name="yacute" unicode="&#xfd;" horiz-adv-x="497" 
d="M55 -168v107h48q76 0 76 70q0 35 -39 139l-138 365h143l76 -231q5 -14 12.5 -41t9.5 -33q2 -9 11 -38h2q2 7 5 19.5t4 18.5q7 32 21 74l72 231h137l-179 -526q-31 -89 -68 -122t-113 -33h-80zM408 718l-108 -141h-106l55 141h159z" />
    <glyph glyph-name="thorn" unicode="&#xfe;" horiz-adv-x="571" 
d="M330 -15q-103 0 -148 73h-2v-226h-136v884h136v-265h3q49 76 146 76q101 0 162 -75t61 -196q0 -124 -61 -197.5t-161 -73.5zM301 98q52 0 82.5 41t30.5 113q0 77 -29 121t-89 44q-61 0 -90 -45.5t-29 -119.5q0 -71 32 -112.5t92 -41.5z" />
    <glyph glyph-name="ydieresis" unicode="&#xff;" horiz-adv-x="497" 
d="M55 -168v107h48q76 0 76 70q0 35 -39 139l-138 365h143l76 -231q5 -14 12.5 -41t9.5 -33q2 -9 11 -38h2q2 7 5 19.5t4 18.5q7 32 21 74l72 231h137l-179 -526q-31 -89 -68 -122t-113 -33h-80zM296 581v114h128v-114h-128zM73 581v114h128v-114h-128z" />
    <glyph glyph-name="Amacron" unicode="&#x100;" horiz-adv-x="659" 
d="M3 0l249 715h150l252 -715h-151l-48 152h-258l-47 -152h-147zM295 469l-64 -206h189l-64 206q-4 11 -10 35.5t-9 33.5q-1 5 -4.5 19l-5.5 22h-2q-8 -28 -11 -41q-3 -9 -9 -33.5t-10 -35.5zM185 762v97h284v-97h-284z" />
    <glyph glyph-name="amacron" unicode="&#x101;" horiz-adv-x="522" 
d="M498 0h-131q-10 14 -16 57h-2q-22 -33 -56 -51t-95 -18q-81 0 -130 41t-49 116q0 78 54 114.5t152 50.5q72 10 98 20.5t26 37.5q0 28 -22 44.5t-64 16.5q-93 0 -99 -72h-121q2 72 59 120.5t162 48.5q216 0 216 -189v-261q0 -58 18 -71v-5zM231 83q55 0 88 29t33 69v77
q-21 -13 -95 -30q-58 -13 -82 -29.5t-24 -50.5q0 -65 80 -65zM123 592v97h284v-97h-284z" />
    <glyph glyph-name="Abreve" unicode="&#x102;" horiz-adv-x="659" 
d="M3 0l249 715h150l252 -715h-151l-48 152h-258l-47 -152h-147zM295 469l-64 -206h189l-64 206q-4 11 -10 35.5t-9 33.5q-1 5 -4.5 19l-5.5 22h-2q-8 -28 -11 -41q-3 -9 -9 -33.5t-10 -35.5zM328 749q-62 0 -103 37.5t-45 95.5h78q7 -48 69 -48q29 0 47.5 13.5t21.5 34.5
h78q-4 -57 -43.5 -95t-102.5 -38z" />
    <glyph glyph-name="abreve" unicode="&#x103;" horiz-adv-x="522" 
d="M498 0h-131q-10 14 -16 57h-2q-22 -33 -56 -51t-95 -18q-81 0 -130 41t-49 116q0 78 54 114.5t152 50.5q72 10 98 20.5t26 37.5q0 28 -22 44.5t-64 16.5q-93 0 -99 -72h-121q2 72 59 120.5t162 48.5q216 0 216 -189v-261q0 -58 18 -71v-5zM231 83q55 0 88 29t33 69v77
q-21 -13 -95 -30q-58 -13 -82 -29.5t-24 -50.5q0 -65 80 -65zM266 573q-62 0 -103 37.5t-45 95.5h78q7 -48 69 -48q29 0 47.5 13.5t21.5 34.5h78q-4 -57 -43.5 -95t-102.5 -38z" />
    <glyph glyph-name="Aogonek" unicode="&#x104;" horiz-adv-x="659" 
d="M600 -174q-112 0 -112 85q0 53 55 89h-40l-48 152h-258l-47 -152h-147l249 715h150l250 -709q-61 -38 -61 -73q0 -28 31 -28q16 0 32 7h2v-77q-22 -9 -56 -9zM295 469l-64 -206h189l-64 206q-4 11 -10 35.5t-9 33.5q-1 5 -4.5 19l-5.5 22h-2q-8 -28 -11 -41
q-3 -9 -9 -33.5t-10 -35.5z" />
    <glyph glyph-name="aogonek" unicode="&#x105;" horiz-adv-x="522" 
d="M403 0h-36q-10 14 -16 57h-2q-22 -33 -56 -51t-95 -18q-81 0 -130 41t-49 116q0 78 54 114.5t152 50.5q72 10 98 20.5t26 37.5q0 28 -22 44.5t-64 16.5q-93 0 -99 -72h-121q2 72 59 120.5t162 48.5q216 0 216 -189v-261q0 -53 15 -71v-5q-53 -37 -53 -67q0 -28 31 -28
q16 0 32 7h2v-77q-22 -9 -56 -9q-112 0 -112 81q0 58 64 93zM231 83q55 0 88 29t33 69v77q-21 -13 -95 -30q-58 -13 -82 -29.5t-24 -50.5q0 -65 80 -65z" />
    <glyph glyph-name="Cacute" unicode="&#x106;" horiz-adv-x="684" 
d="M368 -15q-151 0 -247.5 104.5t-96.5 265.5q0 162 94 268t249 106q128 0 205 -67.5t90 -173.5h-144q-10 55 -49.5 87t-101.5 32q-95 0 -145 -70.5t-50 -181.5q0 -112 53 -181.5t143 -69.5q64 0 105.5 34.5t48.5 91.5h142q-6 -101 -79 -169q-79 -76 -217 -76zM503 878
l-95 -125h-106l42 125h159z" />
    <glyph glyph-name="cacute" unicode="&#x107;" horiz-adv-x="528" 
d="M282 -15q-119 0 -191 77t-72 194q0 116 70.5 193.5t185.5 77.5q97 0 157.5 -51t75.5 -137h-133q-7 35 -32 57t-62 22q-61 0 -92.5 -42.5t-31.5 -119.5q0 -76 30.5 -119t91.5 -43q90 0 103 87h131q-6 -84 -69 -140t-162 -56zM433 718l-108 -141h-106l55 141h159z" />
    <glyph glyph-name="Ccircumflex" unicode="&#x108;" horiz-adv-x="684" 
d="M368 -15q-151 0 -247.5 104.5t-96.5 265.5q0 162 94 268t249 106q128 0 205 -67.5t90 -173.5h-144q-10 55 -49.5 87t-101.5 32q-95 0 -145 -70.5t-50 -181.5q0 -112 53 -181.5t143 -69.5q64 0 105.5 34.5t48.5 91.5h142q-6 -101 -79 -169q-79 -76 -217 -76zM188 753
l94 114h146l96 -114h-118l-48 57h-2l-49 -57h-119z" />
    <glyph glyph-name="ccircumflex" unicode="&#x109;" horiz-adv-x="528" 
d="M282 -15q-119 0 -191 77t-72 194q0 116 70.5 193.5t185.5 77.5q97 0 157.5 -51t75.5 -137h-133q-7 35 -32 57t-62 22q-61 0 -92.5 -42.5t-31.5 -119.5q0 -76 30.5 -119t91.5 -43q90 0 103 87h131q-6 -84 -69 -140t-162 -56zM105 581l94 126h146l96 -126h-118l-48 69h-2
l-49 -69h-119z" />
    <glyph glyph-name="Cdotaccent" unicode="&#x10a;" horiz-adv-x="684" 
d="M368 -15q-151 0 -247.5 104.5t-96.5 265.5q0 162 94 268t249 106q128 0 205 -67.5t90 -173.5h-144q-10 55 -49.5 87t-101.5 32q-95 0 -145 -70.5t-50 -181.5q0 -112 53 -181.5t143 -69.5q64 0 105.5 34.5t48.5 91.5h142q-6 -101 -79 -169q-79 -76 -217 -76zM288 753v118
h136v-118h-136z" />
    <glyph glyph-name="cdotaccent" unicode="&#x10b;" horiz-adv-x="528" 
d="M282 -15q-119 0 -191 77t-72 194q0 116 70.5 193.5t185.5 77.5q97 0 157.5 -51t75.5 -137h-133q-7 35 -32 57t-62 22q-61 0 -92.5 -42.5t-31.5 -119.5q0 -76 30.5 -119t91.5 -43q90 0 103 87h131q-6 -84 -69 -140t-162 -56zM205 593v122h136v-122h-136z" />
    <glyph glyph-name="Ccaron" unicode="&#x10c;" horiz-adv-x="684" 
d="M368 -15q-151 0 -247.5 104.5t-96.5 265.5q0 162 94 268t249 106q128 0 205 -67.5t90 -173.5h-144q-10 55 -49.5 87t-101.5 32q-95 0 -145 -70.5t-50 -181.5q0 -112 53 -181.5t143 -69.5q64 0 105.5 34.5t48.5 91.5h142q-6 -101 -79 -169q-79 -76 -217 -76zM524 867
l-94 -114h-146l-96 114h118l48 -57h2l49 57h119z" />
    <glyph glyph-name="ccaron" unicode="&#x10d;" horiz-adv-x="528" 
d="M282 -15q-119 0 -191 77t-72 194q0 116 70.5 193.5t185.5 77.5q97 0 157.5 -51t75.5 -137h-133q-7 35 -32 57t-62 22q-61 0 -92.5 -42.5t-31.5 -119.5q0 -76 30.5 -119t91.5 -43q90 0 103 87h131q-6 -84 -69 -140t-162 -56zM201 576l-96 126h118l48 -69h2l49 69h119
l-94 -126h-146z" />
    <glyph glyph-name="Dcaron" unicode="&#x10e;" horiz-adv-x="672" 
d="M55 0v715h279q142 0 228 -102.5t86 -262.5q0 -185 -114 -281q-83 -69 -212 -69h-267zM200 125h112q99 0 144 57t45 168q0 110 -47.5 175.5t-137.5 65.5h-116v-466zM473 867l-94 -114h-146l-96 114h118l48 -57h2l49 57h119z" />
    <glyph glyph-name="dcaron" unicode="&#x10f;" horiz-adv-x="566" 
d="M236 -15q-97 0 -157 74t-60 197q0 120 61.5 195.5t157.5 75.5t145 -76h3v264h136v-715h-131v67h-2q-52 -82 -153 -82zM266 99q60 0 91.5 41t31.5 113q0 164 -119 164q-55 0 -84 -44t-29 -117q0 -75 28 -116t81 -41zM565 522v44q30 3 46 13.5t16 34.5h-60v101h124v-85
q0 -54 -35.5 -79.5t-90.5 -28.5z" />
    <glyph glyph-name="Dcroat" unicode="&#x110;" horiz-adv-x="682" 
d="M1 304v117h64v294h279q142 0 228 -102.5t86 -262.5q0 -185 -114 -281q-83 -69 -212 -69h-267v304h-64zM210 125h112q99 0 144 57t45 168q0 110 -47.5 175.5t-137.5 65.5h-116v-170h165v-117h-165v-179z" />
    <glyph glyph-name="dcroat" unicode="&#x111;" horiz-adv-x="566" 
d="M236 -15q-97 0 -157 74t-60 197q0 120 61.5 195.5t157.5 75.5t145 -76h3v118h-132v80h132v66h136v-66h53v-80h-53v-569h-131v67h-2q-52 -82 -153 -82zM266 99q60 0 91.5 41t31.5 113q0 164 -119 164q-55 0 -84 -44t-29 -117q0 -75 28 -116t81 -41z" />
    <glyph glyph-name="Emacron" unicode="&#x112;" horiz-adv-x="619" 
d="M55 0v715h526v-122h-381v-160h334v-119h-334v-193h384v-121h-529zM183 762v97h284v-97h-284z" />
    <glyph glyph-name="emacron" unicode="&#x113;" horiz-adv-x="544" 
d="M285 -15q-125 0 -195.5 76.5t-70.5 195.5q0 115 71 192.5t182 77.5q120 0 186.5 -84.5t66.5 -224.5h-372q18 -128 131 -128q75 0 99 63h134q-15 -72 -76 -120t-156 -48zM274 422q-100 0 -119 -110h228q-3 49 -32.5 79.5t-76.5 30.5zM130 592v97h284v-97h-284z" />
    <glyph glyph-name="Ebreve" unicode="&#x114;" horiz-adv-x="619" 
d="M55 0v715h526v-122h-381v-160h334v-119h-334v-193h384v-121h-529zM326 749q-62 0 -103 37.5t-45 95.5h78q7 -48 69 -48q29 0 47.5 13.5t21.5 34.5h78q-4 -57 -43.5 -95t-102.5 -38z" />
    <glyph glyph-name="ebreve" unicode="&#x115;" horiz-adv-x="544" 
d="M285 -15q-125 0 -195.5 76.5t-70.5 195.5q0 115 71 192.5t182 77.5q120 0 186.5 -84.5t66.5 -224.5h-372q18 -128 131 -128q75 0 99 63h134q-15 -72 -76 -120t-156 -48zM274 422q-100 0 -119 -110h228q-3 49 -32.5 79.5t-76.5 30.5zM273 573q-62 0 -103 37.5t-45 95.5h78
q7 -48 69 -48q29 0 47.5 13.5t21.5 34.5h78q-4 -57 -43.5 -95t-102.5 -38z" />
    <glyph glyph-name="Edotaccent" unicode="&#x116;" horiz-adv-x="619" 
d="M55 0v715h526v-122h-381v-160h334v-119h-334v-193h384v-121h-529zM257 753v118h136v-118h-136z" />
    <glyph glyph-name="edotaccent" unicode="&#x117;" horiz-adv-x="544" 
d="M285 -15q-125 0 -195.5 76.5t-70.5 195.5q0 115 71 192.5t182 77.5q120 0 186.5 -84.5t66.5 -224.5h-372q18 -128 131 -128q75 0 99 63h134q-15 -72 -76 -120t-156 -48zM274 422q-100 0 -119 -110h228q-3 49 -32.5 79.5t-76.5 30.5zM204 593v122h136v-122h-136z" />
    <glyph glyph-name="Eogonek" unicode="&#x118;" horiz-adv-x="619" 
d="M55 0v715h526v-122h-381v-160h334v-119h-334v-193h384v-121h-45q-47 -41 -47 -67q0 -28 31 -28q16 0 32 7h2v-77q-22 -9 -56 -9q-112 0 -112 85q0 53 55 89h-389z" />
    <glyph glyph-name="eogonek" unicode="&#x119;" horiz-adv-x="544" 
d="M361 -174q-111 0 -111 81q0 44 51 79q-7 -1 -16 -1q-125 0 -195.5 76.5t-70.5 195.5q0 115 71 192.5t182 77.5q120 0 186.5 -84.5t66.5 -224.5h-372q18 -128 131 -128q75 0 99 63h134q-7 -32 -24 -60t-33 -44.5t-49 -45.5q-46 -39 -53 -51q-5 -10 -5 -19q0 -28 31 -28
q16 0 32 7h2v-77q-22 -9 -57 -9zM274 422q-100 0 -119 -110h228q-3 49 -32.5 79.5t-76.5 30.5z" />
    <glyph glyph-name="Ecaron" unicode="&#x11a;" horiz-adv-x="619" 
d="M55 0v715h526v-122h-381v-160h334v-119h-334v-193h384v-121h-529zM493 867l-94 -114h-146l-96 114h118l48 -57h2l49 57h119z" />
    <glyph glyph-name="ecaron" unicode="&#x11b;" horiz-adv-x="544" 
d="M285 -15q-125 0 -195.5 76.5t-70.5 195.5q0 115 71 192.5t182 77.5q120 0 186.5 -84.5t66.5 -224.5h-372q18 -128 131 -128q75 0 99 63h134q-15 -72 -76 -120t-156 -48zM274 422q-100 0 -119 -110h228q-3 49 -32.5 79.5t-76.5 30.5zM200 576l-96 126h118l48 -69h2l49 69
h119l-94 -126h-146z" />
    <glyph glyph-name="Gcircumflex" unicode="&#x11c;" horiz-adv-x="734" 
d="M579 0l-5 96h-2q-66 -111 -201 -111q-155 0 -251 104q-93 104 -93 266q0 186 117 292q91 82 230 82q131 0 209 -65t97 -174h-142q-13 54 -54 86.5t-107 32.5q-97 0 -149.5 -71t-52.5 -183t54.5 -182.5t145.5 -70.5q80 0 132 49.5t52 112.5v4h-172v112h301v-380h-109z
M195 753l94 114h146l96 -114h-118l-48 57h-2l-49 -57h-119z" />
    <glyph glyph-name="gcircumflex" unicode="&#x11d;" horiz-adv-x="560" 
d="M270 -175q-105 0 -167 42t-73 118h135q20 -57 103 -57q114 0 114 107v56h-3q-53 -60 -134 -60q-91 0 -158.5 67t-67.5 178q0 114 62 182.5t160 68.5q93 0 142 -68h2v54h131v-474q0 -101 -61 -156q-62 -58 -185 -58zM268 140q61 0 91 39t30 100t-31.5 100t-90.5 39
q-52 0 -83.5 -37.5t-31.5 -102.5t31 -101.5t85 -36.5zM109 581l94 126h146l96 -126h-118l-48 69h-2l-49 -69h-119z" />
    <glyph glyph-name="Gbreve" unicode="&#x11e;" horiz-adv-x="734" 
d="M579 0l-5 96h-2q-66 -111 -201 -111q-155 0 -251 104q-93 104 -93 266q0 186 117 292q91 82 230 82q131 0 209 -65t97 -174h-142q-13 54 -54 86.5t-107 32.5q-97 0 -149.5 -71t-52.5 -183t54.5 -182.5t145.5 -70.5q80 0 132 49.5t52 112.5v4h-172v112h301v-380h-109z
M364 749q-62 0 -103 37.5t-45 95.5h78q7 -48 69 -48q29 0 47.5 13.5t21.5 34.5h78q-4 -57 -43.5 -95t-102.5 -38z" />
    <glyph glyph-name="gbreve" unicode="&#x11f;" horiz-adv-x="560" 
d="M270 -175q-105 0 -167 42t-73 118h135q20 -57 103 -57q114 0 114 107v56h-3q-53 -60 -134 -60q-91 0 -158.5 67t-67.5 178q0 114 62 182.5t160 68.5q93 0 142 -68h2v54h131v-474q0 -101 -61 -156q-62 -58 -185 -58zM268 140q61 0 91 39t30 100t-31.5 100t-90.5 39
q-52 0 -83.5 -37.5t-31.5 -102.5t31 -101.5t85 -36.5zM278 573q-62 0 -103 37.5t-45 95.5h78q7 -48 69 -48q29 0 47.5 13.5t21.5 34.5h78q-4 -57 -43.5 -95t-102.5 -38z" />
    <glyph glyph-name="Gdotaccent" unicode="&#x120;" horiz-adv-x="734" 
d="M579 0l-5 96h-2q-66 -111 -201 -111q-155 0 -251 104q-93 104 -93 266q0 186 117 292q91 82 230 82q131 0 209 -65t97 -174h-142q-13 54 -54 86.5t-107 32.5q-97 0 -149.5 -71t-52.5 -183t54.5 -182.5t145.5 -70.5q80 0 132 49.5t52 112.5v4h-172v112h301v-380h-109z
M295 753v118h136v-118h-136z" />
    <glyph glyph-name="gdotaccent" unicode="&#x121;" horiz-adv-x="560" 
d="M270 -175q-105 0 -167 42t-73 118h135q20 -57 103 -57q114 0 114 107v56h-3q-53 -60 -134 -60q-91 0 -158.5 67t-67.5 178q0 114 62 182.5t160 68.5q93 0 142 -68h2v54h131v-474q0 -101 -61 -156q-62 -58 -185 -58zM268 140q61 0 91 39t30 100t-31.5 100t-90.5 39
q-52 0 -83.5 -37.5t-31.5 -102.5t31 -101.5t85 -36.5zM209 593v122h136v-122h-136z" />
    <glyph glyph-name="uni0122" unicode="&#x122;" horiz-adv-x="734" 
d="M579 0l-5 96h-2q-66 -111 -201 -111q-155 0 -251 104q-93 104 -93 266q0 186 117 292q91 82 230 82q131 0 209 -65t97 -174h-142q-13 54 -54 86.5t-107 32.5q-97 0 -149.5 -71t-52.5 -183t54.5 -182.5t145.5 -70.5q80 0 132 49.5t52 112.5v4h-172v112h301v-380h-109z
M300 -263v44q62 15 62 64h-60v107h124v-97q0 -54 -35.5 -82.5t-90.5 -35.5z" />
    <glyph glyph-name="uni0123" unicode="&#x123;" horiz-adv-x="560" 
d="M270 -175q-105 0 -167 42t-73 118h135q20 -57 103 -57q114 0 114 107v56h-3q-53 -60 -134 -60q-91 0 -158.5 67t-67.5 178q0 114 62 182.5t160 68.5q93 0 142 -68h2v54h131v-474q0 -101 -61 -156q-62 -58 -185 -58zM268 140q61 0 91 39t30 100t-31.5 100t-90.5 39
q-52 0 -83.5 -37.5t-31.5 -102.5t31 -101.5t85 -36.5zM340 816v-44q-62 -15 -62 -64h60v-107h-124v97q0 54 35.5 82.5t90.5 35.5z" />
    <glyph glyph-name="Hcircumflex" unicode="&#x124;" horiz-adv-x="681" 
d="M55 0v715h145v-280h281v280h145v-715h-145v315h-281v-315h-145zM172 753l94 114h146l96 -114h-118l-48 57h-2l-49 -57h-119z" />
    <glyph glyph-name="hcircumflex" unicode="&#x125;" horiz-adv-x="549" 
d="M180 715v-269h3q29 42 63 61.5t86 19.5q79 0 128 -54t49 -138v-335h-136v315q0 43 -23.5 68.5t-65.5 25.5q-45 0 -74.5 -32.5t-29.5 -85.5v-291h-136v715h136zM108 753l94 114h146l96 -114h-118l-48 57h-2l-49 -57h-119z" />
    <glyph glyph-name="Hbar" unicode="&#x126;" horiz-adv-x="681" 
d="M-3 508v87h58v120h145v-120h281v120h145v-120h58v-87h-58v-508h-145v315h-281v-315h-145v508h-58zM481 435v73h-281v-73h281z" />
    <glyph glyph-name="hbar" unicode="&#x127;" horiz-adv-x="549" 
d="M180 715v-66h132v-80h-132v-123h3q29 42 63 61.5t86 19.5q79 0 128 -54t49 -138v-335h-136v315q0 43 -23.5 68.5t-65.5 25.5q-45 0 -74.5 -32.5t-29.5 -85.5v-291h-136v569h-53v80h53v66h136z" />
    <glyph glyph-name="Itilde" unicode="&#x128;" horiz-adv-x="257" 
d="M56 0v715h145v-715h-145zM186 755q-27 0 -62.5 16.5t-46.5 16.5q-23 0 -27 -31h-72q0 57 25 87.5t65 30.5q27 0 62.5 -17.5t46.5 -17.5q22 0 29 31h72q0 -52 -24.5 -84t-67.5 -32z" />
    <glyph glyph-name="itilde" unicode="&#x129;" horiz-adv-x="224" 
d="M44 0v513h136v-513h-136zM166 575q-25 0 -57.5 15.5t-37.5 15.5q-22 0 -25 -29h-69q0 57 22 87.5t57 30.5q25 0 58 -16.5t39 -16.5q12 0 17.5 7t7.5 22h69q0 -52 -21.5 -84t-59.5 -32z" />
    <glyph glyph-name="Imacron" unicode="&#x12a;" horiz-adv-x="257" 
d="M56 0v715h145v-715h-145zM-14 762v97h284v-97h-284z" />
    <glyph glyph-name="imacron" unicode="&#x12b;" horiz-adv-x="224" 
d="M44 0v513h136v-513h-136zM-10 592v97h244v-97h-244z" />
    <glyph glyph-name="Iogonek" unicode="&#x12e;" horiz-adv-x="257" 
d="M56 0v715h145v-710q-58 -39 -58 -72q0 -28 31 -28q16 0 32 7h2v-77q-22 -9 -56 -9q-112 0 -112 85q0 53 55 89h-39z" />
    <glyph glyph-name="iogonek" unicode="&#x12f;" horiz-adv-x="224" 
d="M44 0v513h136v-508q-55 -38 -55 -72q0 -28 29 -28q16 0 32 7h2v-77q-22 -9 -57 -9q-109 0 -109 81q0 56 62 93h-40zM44 593v122h136v-122h-136z" />
    <glyph glyph-name="Idotaccent" unicode="&#x130;" horiz-adv-x="257" 
d="M56 0v715h145v-715h-145zM60 753v118h136v-118h-136z" />
    <glyph glyph-name="dotlessi" unicode="&#x131;" horiz-adv-x="224" 
d="M44 0v513h136v-513h-136z" />
    <glyph glyph-name="IJ" unicode="&#x132;" horiz-adv-x="773" 
d="M56 0v715h145v-715h-145zM508 -13q-114 0 -174 52t-60 156v71h130v-62q0 -53 23 -76.5t69 -23.5q86 0 86 98v513h145v-514q0 -96 -56 -155t-163 -59z" />
    <glyph glyph-name="ij" unicode="&#x133;" horiz-adv-x="448" 
d="M44 0v513h136v-513h-136zM44 593v122h136v-122h-136zM260 -169q-46 0 -77 6v97q45 0 65 10.5t20 42.5v526h136v-533q0 -78 -34 -112q-37 -37 -110 -37zM268 593v122h136v-122h-136z" />
    <glyph glyph-name="Jcircumflex" unicode="&#x134;" horiz-adv-x="516" 
d="M251 -13q-114 0 -174 52t-60 156v71h130v-62q0 -53 23 -76.5t69 -23.5q86 0 86 98v513h145v-514q0 -96 -56 -155t-163 -59zM227 753l94 114h146l96 -114h-118l-48 57h-2l-49 -57h-119z" />
    <glyph glyph-name="jcircumflex" unicode="&#x135;" horiz-adv-x="224" 
d="M36 -169q-46 0 -77 6v97q45 0 65 10.5t20 42.5v526h136v-533q0 -78 -34 -112q-37 -37 -110 -37zM-30 581l71 126h139l73 -126h-107l-32 66h-2l-34 -66h-108z" />
    <glyph glyph-name="uni0136" unicode="&#x136;" horiz-adv-x="674" 
d="M55 0v715h145v-285l275 285h180l-280 -286l298 -429h-170l-230 334l-73 -74v-260h-145zM269 -263v44q62 15 62 64h-60v107h124v-97q0 -54 -35.5 -82.5t-90.5 -35.5z" />
    <glyph glyph-name="uni0137" unicode="&#x137;" horiz-adv-x="546" 
d="M382 0l-144 234l-59 -61v-173h-135v715h135v-396l182 194h163l-189 -195l212 -318h-165zM232 -263v44q62 15 62 64h-60v107h124v-97q0 -54 -35.5 -82.5t-90.5 -35.5z" />
    <glyph glyph-name="Lacute" unicode="&#x139;" horiz-adv-x="559" 
d="M55 0v715h145v-594h336v-121h-481zM274 878l-95 -125h-106l42 125h159z" />
    <glyph glyph-name="lacute" unicode="&#x13a;" horiz-adv-x="228" 
d="M46 0v715h136v-715h-136zM261 878l-95 -125h-106l42 125h159z" />
    <glyph glyph-name="uni013B" unicode="&#x13b;" horiz-adv-x="559" 
d="M55 0v715h145v-594h336v-121h-481zM233 -263v44q62 15 62 64h-60v107h124v-97q0 -54 -35.5 -82.5t-90.5 -35.5z" />
    <glyph glyph-name="uni013C" unicode="&#x13c;" horiz-adv-x="228" 
d="M46 0v715h136v-715h-136zM51 -263v44q62 15 62 64h-60v107h124v-97q0 -54 -35.5 -82.5t-90.5 -35.5z" />
    <glyph glyph-name="Lcaron" unicode="&#x13d;" horiz-adv-x="559" 
d="M55 0v715h145v-594h336v-121h-481zM314 522v44q30 3 46 13.5t16 34.5h-60v101h124v-85q0 -54 -35.5 -79.5t-90.5 -28.5z" />
    <glyph glyph-name="lcaron" unicode="&#x13e;" horiz-adv-x="228" 
d="M46 0v715h136v-715h-136zM225 522v44q30 3 46 13.5t16 34.5h-60v101h124v-85q0 -54 -35.5 -79.5t-90.5 -28.5z" />
    <glyph glyph-name="Ldot" unicode="&#x13f;" horiz-adv-x="559" 
d="M55 0v715h145v-594h336v-121h-481zM360 263v145h146v-145h-146z" />
    <glyph glyph-name="ldot" unicode="&#x140;" horiz-adv-x="392" 
d="M46 0v715h136v-715h-136zM237 263v145h146v-145h-146z" />
    <glyph glyph-name="Lslash" unicode="&#x141;" horiz-adv-x="564" 
d="M-4 191v97l64 32v395h145v-321l200 103v-97l-200 -103v-176h336v-121h-481v223z" />
    <glyph glyph-name="lslash" unicode="&#x142;" horiz-adv-x="260" 
d="M3 213v97l58 44v361h136v-258l66 51v-97l-66 -51v-360h-136v257z" />
    <glyph glyph-name="Nacute" unicode="&#x143;" horiz-adv-x="686" 
d="M55 0v715h147l238 -399q6 -10 17.5 -32.5t16.5 -32.5q1 -2 16 -35h2q-1 7 -1.5 21.5t-0.5 21.5q-2 50 -2 81v375h143v-715h-140l-244 395q-7 11 -19 34.5t-15 29.5q-12 24 -17 35h-2q0 -7 1 -21.5t1 -22.5q2 -50 2 -81v-369h-143zM497 878l-95 -125h-106l42 125h159z" />
    <glyph glyph-name="nacute" unicode="&#x144;" horiz-adv-x="549" 
d="M177 513v-70h3q52 84 152 84q79 0 128 -54t49 -138v-335h-136v315q0 43 -23.5 68.5t-65.5 25.5q-45 0 -74.5 -32.5t-29.5 -85.5v-291h-136v513h133zM436 718l-108 -141h-106l55 141h159z" />
    <glyph glyph-name="uni0145" unicode="&#x145;" horiz-adv-x="686" 
d="M55 0v715h147l238 -399q6 -10 17.5 -32.5t16.5 -32.5q1 -2 16 -35h2q-1 7 -1.5 21.5t-0.5 21.5q-2 50 -2 81v375h143v-715h-140l-244 395q-7 11 -19 34.5t-15 29.5q-12 24 -17 35h-2q0 -7 1 -21.5t1 -22.5q2 -50 2 -81v-369h-143zM278 -261v44q62 15 62 64h-60v107h124
v-97q0 -54 -35.5 -82.5t-90.5 -35.5z" />
    <glyph glyph-name="uni0146" unicode="&#x146;" horiz-adv-x="549" 
d="M177 513v-70h3q52 84 152 84q79 0 128 -54t49 -138v-335h-136v315q0 43 -23.5 68.5t-65.5 25.5q-45 0 -74.5 -32.5t-29.5 -85.5v-291h-136v513h133zM213 -263v44q62 15 62 64h-60v107h124v-97q0 -54 -35.5 -82.5t-90.5 -35.5z" />
    <glyph glyph-name="Ncaron" unicode="&#x147;" horiz-adv-x="686" 
d="M55 0v715h147l238 -399q6 -10 17.5 -32.5t16.5 -32.5q1 -2 16 -35h2q-1 7 -1.5 21.5t-0.5 21.5q-2 50 -2 81v375h143v-715h-140l-244 395q-7 11 -19 34.5t-15 29.5q-12 24 -17 35h-2q0 -7 1 -21.5t1 -22.5q2 -50 2 -81v-369h-143zM518 867l-94 -114h-146l-96 114h118
l48 -57h2l49 57h119z" />
    <glyph glyph-name="ncaron" unicode="&#x148;" horiz-adv-x="549" 
d="M177 513v-70h3q52 84 152 84q79 0 128 -54t49 -138v-335h-136v315q0 43 -23.5 68.5t-65.5 25.5q-45 0 -74.5 -32.5t-29.5 -85.5v-291h-136v513h133zM204 576l-96 126h118l48 -69h2l49 69h119l-94 -126h-146z" />
    <glyph glyph-name="napostrophe" unicode="&#x149;" horiz-adv-x="549" 
d="M177 513v-70h3q52 84 152 84q79 0 128 -54t49 -138v-335h-136v315q0 43 -23.5 68.5t-65.5 25.5q-45 0 -74.5 -32.5t-29.5 -85.5v-291h-136v513h133zM-43 522v44q30 3 46 13.5t16 34.5h-60v101h124v-85q0 -54 -35.5 -79.5t-90.5 -28.5z" />
    <glyph glyph-name="Omacron" unicode="&#x14c;" horiz-adv-x="737" 
d="M369 -16q-157 0 -251 104.5t-94 267.5t94 268t251 105q156 0 250 -105t94 -268t-94 -267.5t-250 -104.5zM370 103q95 0 145 70.5t50 182.5t-50 183t-145 71t-146.5 -71t-51.5 -183q0 -111 51.5 -182t146.5 -71zM226 762v97h284v-97h-284z" />
    <glyph glyph-name="omacron" unicode="&#x14d;" horiz-adv-x="574" 
d="M287 -15q-118 0 -193 77.5t-75 193.5t75 193.5t193 77.5t193 -77.5t75 -193.5t-75 -193.5t-193 -77.5zM287 89q62 0 96 45.5t34 121.5q0 77 -34 122.5t-96 45.5t-96 -45.5t-34 -122.5q0 -76 34 -121.5t96 -45.5zM145 592v97h284v-97h-284z" />
    <glyph glyph-name="Obreve" unicode="&#x14e;" horiz-adv-x="737" 
d="M369 -16q-157 0 -251 104.5t-94 267.5t94 268t251 105q156 0 250 -105t94 -268t-94 -267.5t-250 -104.5zM370 103q95 0 145 70.5t50 182.5t-50 183t-145 71t-146.5 -71t-51.5 -183q0 -111 51.5 -182t146.5 -71zM369 749q-62 0 -103 37.5t-45 95.5h78q7 -48 69 -48
q29 0 47.5 13.5t21.5 34.5h78q-4 -57 -43.5 -95t-102.5 -38z" />
    <glyph glyph-name="obreve" unicode="&#x14f;" horiz-adv-x="574" 
d="M287 -15q-118 0 -193 77.5t-75 193.5t75 193.5t193 77.5t193 -77.5t75 -193.5t-75 -193.5t-193 -77.5zM287 89q62 0 96 45.5t34 121.5q0 77 -34 122.5t-96 45.5t-96 -45.5t-34 -122.5q0 -76 34 -121.5t96 -45.5zM288 573q-62 0 -103 37.5t-45 95.5h78q7 -48 69 -48
q29 0 47.5 13.5t21.5 34.5h78q-4 -57 -43.5 -95t-102.5 -38z" />
    <glyph glyph-name="Ohungarumlaut" unicode="&#x150;" horiz-adv-x="737" 
d="M369 -16q-157 0 -251 104.5t-94 267.5t94 268t251 105q156 0 250 -105t94 -268t-94 -267.5t-250 -104.5zM370 103q95 0 145 70.5t50 182.5t-50 183t-145 71t-146.5 -71t-51.5 -183q0 -111 51.5 -182t146.5 -71zM415 753l33 125h129l-79 -125h-83zM241 753l33 125h129
l-79 -125h-83z" />
    <glyph glyph-name="ohungarumlaut" unicode="&#x151;" horiz-adv-x="574" 
d="M287 -15q-118 0 -193 77.5t-75 193.5t75 193.5t193 77.5t193 -77.5t75 -193.5t-75 -193.5t-193 -77.5zM287 89q62 0 96 45.5t34 121.5q0 77 -34 122.5t-96 45.5t-96 -45.5t-34 -122.5q0 -76 34 -121.5t96 -45.5zM334 577l40 141h129l-86 -141h-83zM160 577l40 141h129
l-86 -141h-83z" />
    <glyph glyph-name="OE" unicode="&#x152;" horiz-adv-x="1053" 
d="M355 -16q-143 0 -237 106t-94 266q0 161 94.5 267t236.5 106q86 0 155 -56v42h497v-125h-354v-161h306v-117h-306v-181h365v-131h-508v43q-70 -59 -155 -59zM361 103q103 0 149 72v359q-48 76 -149 76q-88 0 -138.5 -71.5t-50.5 -182.5q0 -110 50.5 -181.5t138.5 -71.5z
" />
    <glyph glyph-name="oe" unicode="&#x153;" horiz-adv-x="943" 
d="M287 -15q-118 0 -193 77.5t-75 193.5t75 193.5t193 77.5q126 0 197 -87q71 87 187 87q120 0 186.5 -84.5t66.5 -224.5h-372q18 -128 131 -128q75 0 99 63h134q-15 -72 -76 -120t-156 -48q-130 0 -201 86q-73 -86 -196 -86zM287 89q62 0 96 45.5t34 121.5q0 77 -34 122.5
t-96 45.5t-96 -45.5t-34 -122.5q0 -76 34 -121.5t96 -45.5zM673 422q-100 0 -119 -110h228q-3 49 -32.5 79.5t-76.5 30.5z" />
    <glyph glyph-name="Racute" unicode="&#x154;" horiz-adv-x="651" 
d="M55 0v715h328q104 0 167 -55t63 -144q0 -137 -131 -173v-3q50 -15 76 -48t33 -96q3 -25 5 -56.5t3.5 -51t3.5 -38.5t7 -29.5t12 -13.5v-7h-139q-16 7 -24 141q-1 16 -2 24q-11 122 -140 122h-117v-287h-145zM200 598v-199h154q58 0 88 26.5t30 71.5q0 46 -29 73.5
t-85 27.5h-158zM459 878l-95 -125h-106l42 125h159z" />
    <glyph glyph-name="racute" unicode="&#x155;" horiz-adv-x="351" 
d="M175 513v-82h3q24 46 53 67t73 21q23 0 32 -4v-119h-3q-69 7 -111 -30t-42 -116v-250h-136v513h131zM362 718l-108 -141h-106l55 141h159z" />
    <glyph glyph-name="uni0156" unicode="&#x156;" horiz-adv-x="651" 
d="M55 0v715h328q104 0 167 -55t63 -144q0 -137 -131 -173v-3q50 -15 76 -48t33 -96q3 -25 5 -56.5t3.5 -51t3.5 -38.5t7 -29.5t12 -13.5v-7h-139q-16 7 -24 141q-1 16 -2 24q-11 122 -140 122h-117v-287h-145zM200 598v-199h154q58 0 88 26.5t30 71.5q0 46 -29 73.5
t-85 27.5h-158zM275 -263v44q62 15 62 64h-60v107h124v-97q0 -54 -35.5 -82.5t-90.5 -35.5z" />
    <glyph glyph-name="uni0157" unicode="&#x157;" horiz-adv-x="351" 
d="M175 513v-82h3q24 46 53 67t73 21q23 0 32 -4v-119h-3q-69 7 -111 -30t-42 -116v-250h-136v513h131zM45 -263v44q62 15 62 64h-60v107h124v-97q0 -54 -35.5 -82.5t-90.5 -35.5z" />
    <glyph glyph-name="Rcaron" unicode="&#x158;" horiz-adv-x="651" 
d="M55 0v715h328q104 0 167 -55t63 -144q0 -137 -131 -173v-3q50 -15 76 -48t33 -96q3 -25 5 -56.5t3.5 -51t3.5 -38.5t7 -29.5t12 -13.5v-7h-139q-16 7 -24 141q-1 16 -2 24q-11 122 -140 122h-117v-287h-145zM200 598v-199h154q58 0 88 26.5t30 71.5q0 46 -29 73.5
t-85 27.5h-158zM480 867l-94 -114h-146l-96 114h118l48 -57h2l49 57h119z" />
    <glyph glyph-name="rcaron" unicode="&#x159;" horiz-adv-x="351" 
d="M175 513v-82h3q24 46 53 67t73 21q23 0 32 -4v-119h-3q-69 7 -111 -30t-42 -116v-250h-136v513h131zM130 576l-96 126h118l48 -69h2l49 69h119l-94 -126h-146z" />
    <glyph glyph-name="Sacute" unicode="&#x15a;" horiz-adv-x="642" 
d="M332 -16q-146 0 -225.5 61.5t-83.5 175.5h142q8 -65 45.5 -92.5t115.5 -27.5q61 0 100 22.5t39 69.5q0 25 -11 42t-39 29.5t-52 19.5t-75 18q-46 11 -75.5 19t-65 25t-56 37.5t-34.5 54t-14 76.5q0 103 75.5 158.5t198.5 55.5q122 0 195 -57.5t81 -165.5h-139
q-6 53 -43 80.5t-95 27.5q-59 0 -94 -23t-35 -61q0 -41 34 -59.5t122 -38.5q52 -11 85 -20.5t71.5 -27t60 -38.5t36 -55.5t14.5 -79.5q0 -106 -77.5 -166t-200.5 -60zM467 878l-95 -125h-106l42 125h159z" />
    <glyph glyph-name="sacute" unicode="&#x15b;" horiz-adv-x="485" 
d="M252 -15q-110 0 -172 48.5t-68 132.5h126q13 -85 112 -85q45 0 69.5 16t24.5 43q0 44 -116 64q-13 3 -19 4q-33 7 -55 12.5t-48.5 17.5t-41.5 27t-26 40t-11 58q0 80 58.5 122t150.5 42q100 0 156 -45t64 -125h-123q-5 41 -29 58t-70 17q-41 0 -64.5 -15t-23.5 -42
q0 -13 7 -22t23 -15t29 -9.5t40.5 -8.5t41.5 -8q34 -8 53 -13t47 -17.5t43 -28t26.5 -42t11.5 -61.5q0 -76 -59.5 -120.5t-156.5 -44.5zM403 718l-108 -141h-106l55 141h159z" />
    <glyph glyph-name="Scircumflex" unicode="&#x15c;" horiz-adv-x="642" 
d="M332 -16q-146 0 -225.5 61.5t-83.5 175.5h142q8 -65 45.5 -92.5t115.5 -27.5q61 0 100 22.5t39 69.5q0 25 -11 42t-39 29.5t-52 19.5t-75 18q-46 11 -75.5 19t-65 25t-56 37.5t-34.5 54t-14 76.5q0 103 75.5 158.5t198.5 55.5q122 0 195 -57.5t81 -165.5h-139
q-6 53 -43 80.5t-95 27.5q-59 0 -94 -23t-35 -61q0 -41 34 -59.5t122 -38.5q52 -11 85 -20.5t71.5 -27t60 -38.5t36 -55.5t14.5 -79.5q0 -106 -77.5 -166t-200.5 -60zM152 753l94 114h146l96 -114h-118l-48 57h-2l-49 -57h-119z" />
    <glyph glyph-name="scircumflex" unicode="&#x15d;" horiz-adv-x="485" 
d="M252 -15q-110 0 -172 48.5t-68 132.5h126q13 -85 112 -85q45 0 69.5 16t24.5 43q0 44 -116 64q-13 3 -19 4q-33 7 -55 12.5t-48.5 17.5t-41.5 27t-26 40t-11 58q0 80 58.5 122t150.5 42q100 0 156 -45t64 -125h-123q-5 41 -29 58t-70 17q-41 0 -64.5 -15t-23.5 -42
q0 -13 7 -22t23 -15t29 -9.5t40.5 -8.5t41.5 -8q34 -8 53 -13t47 -17.5t43 -28t26.5 -42t11.5 -61.5q0 -76 -59.5 -120.5t-156.5 -44.5zM75 581l94 126h146l96 -126h-118l-48 69h-2l-49 -69h-119z" />
    <glyph glyph-name="Scedilla" unicode="&#x15e;" horiz-adv-x="642" 
d="M295 -192q-60 0 -106 29l18 32q33 -15 70 -15q57 0 57 31q0 29 -41 29q-18 0 -37 -7l-16 22l56 56q-130 8 -200 68.5t-73 167.5h142q8 -65 45.5 -92.5t115.5 -27.5q61 0 100 22.5t39 69.5q0 25 -11 42t-39 29.5t-52 19.5t-75 18q-46 11 -75.5 19t-65 25t-56 37.5
t-34.5 54t-14 76.5q0 103 75.5 158.5t198.5 55.5q122 0 195 -57.5t81 -165.5h-139q-6 53 -43 80.5t-95 27.5q-59 0 -94 -23t-35 -61q0 -41 34 -59.5t122 -38.5q52 -11 85 -20.5t71.5 -27t60 -38.5t36 -55.5t14.5 -79.5q0 -102 -71 -161.5t-188 -63.5l-41 -35v-2
q43 6 74.5 -10t31.5 -54q0 -35 -34 -55.5t-87 -20.5z" />
    <glyph glyph-name="scedilla" unicode="&#x15f;" horiz-adv-x="485" 
d="M218 -192q-60 0 -106 29l18 32q33 -15 70 -15q57 0 57 31q0 29 -41 29q-18 0 -37 -7l-16 22l57 57q-95 8 -149 55.5t-59 124.5h126q13 -85 112 -85q45 0 69.5 16t24.5 43q0 44 -116 64q-13 3 -19 4q-33 7 -55 12.5t-48.5 17.5t-41.5 27t-26 40t-11 58q0 80 58.5 122
t150.5 42q100 0 156 -45t64 -125h-123q-5 41 -29 58t-70 17q-41 0 -64.5 -15t-23.5 -42q0 -13 7 -22t23 -15t29 -9.5t40.5 -8.5t41.5 -8q34 -8 53 -13t47 -17.5t43 -28t26.5 -42t11.5 -61.5q0 -71 -52 -114.5t-140 -49.5l-43 -36v-2q43 6 74.5 -10t31.5 -54q0 -35 -34 -55.5
t-87 -20.5z" />
    <glyph glyph-name="Scaron" unicode="&#x160;" horiz-adv-x="642" 
d="M332 -16q-146 0 -225.5 61.5t-83.5 175.5h142q8 -65 45.5 -92.5t115.5 -27.5q61 0 100 22.5t39 69.5q0 25 -11 42t-39 29.5t-52 19.5t-75 18q-46 11 -75.5 19t-65 25t-56 37.5t-34.5 54t-14 76.5q0 103 75.5 158.5t198.5 55.5q122 0 195 -57.5t81 -165.5h-139
q-6 53 -43 80.5t-95 27.5q-59 0 -94 -23t-35 -61q0 -41 34 -59.5t122 -38.5q52 -11 85 -20.5t71.5 -27t60 -38.5t36 -55.5t14.5 -79.5q0 -106 -77.5 -166t-200.5 -60zM488 867l-94 -114h-146l-96 114h118l48 -57h2l49 57h119z" />
    <glyph glyph-name="scaron" unicode="&#x161;" horiz-adv-x="485" 
d="M252 -15q-110 0 -172 48.5t-68 132.5h126q13 -85 112 -85q45 0 69.5 16t24.5 43q0 44 -116 64q-13 3 -19 4q-33 7 -55 12.5t-48.5 17.5t-41.5 27t-26 40t-11 58q0 80 58.5 122t150.5 42q100 0 156 -45t64 -125h-123q-5 41 -29 58t-70 17q-41 0 -64.5 -15t-23.5 -42
q0 -13 7 -22t23 -15t29 -9.5t40.5 -8.5t41.5 -8q34 -8 53 -13t47 -17.5t43 -28t26.5 -42t11.5 -61.5q0 -76 -59.5 -120.5t-156.5 -44.5zM171 576l-96 126h118l48 -69h2l49 69h119l-94 -126h-146z" />
    <glyph glyph-name="uni0162" unicode="&#x162;" horiz-adv-x="611" 
d="M18 593v122h575v-122h-215v-593h-145v593h-215zM242 -263v44q62 15 62 64h-60v107h124v-97q0 -54 -35.5 -82.5t-90.5 -35.5z" />
    <glyph glyph-name="uni0163" unicode="&#x163;" horiz-adv-x="332" 
d="M14 423v90h71v160h133v-160h88v-90h-88v-272q0 -51 51 -51h26q9 0 14 1v-100q-7 -1 -22 -1q-15 -1 -63 -1q-59 0 -99 28.5t-40 94.5v301h-71zM128 -263v44q62 15 62 64h-60v107h124v-97q0 -54 -35.5 -82.5t-90.5 -35.5z" />
    <glyph glyph-name="Tcaron" unicode="&#x164;" horiz-adv-x="611" 
d="M18 593v122h575v-122h-215v-593h-145v593h-215zM473 867l-94 -114h-146l-96 114h118l48 -57h2l49 57h119z" />
    <glyph glyph-name="tcaron" unicode="&#x165;" horiz-adv-x="332" 
d="M14 423v90h71v160h133v-160h88v-90h-88v-272q0 -51 51 -51h26q9 0 14 1v-100q-7 -1 -22 -1q-15 -1 -63 -1q-59 0 -99 28.5t-40 94.5v301h-71zM259 539v45q62 5 62 41h-60v90h124v-80q0 -46 -35 -70t-91 -26z" />
    <glyph glyph-name="Tbar" unicode="&#x166;" horiz-adv-x="611" 
d="M18 593v122h575v-122h-215v-191h142v-87h-142v-315h-145v315h-142v87h142v191h-215z" />
    <glyph glyph-name="tbar" unicode="&#x167;" horiz-adv-x="332" 
d="M14 423v90h71v160h133v-160h88v-90h-88v-73h88v-80h-88v-119q0 -51 51 -51h26q9 0 14 1v-100q-7 -1 -22 -1q-15 -1 -63 -1q-59 0 -99 28.5t-40 94.5v148h-72v80h72v73h-71z" />
    <glyph glyph-name="Utilde" unicode="&#x168;" horiz-adv-x="657" 
d="M331 -12q-139 0 -210.5 62t-71.5 180v485h145v-485q0 -126 134 -126q67 0 101 34.5t34 93.5v483h145v-485q0 -116 -70.5 -179t-206.5 -63zM385 755q-27 0 -62.5 16.5t-46.5 16.5q-23 0 -27 -31h-72q0 57 25 87.5t65 30.5q27 0 62.5 -17.5t46.5 -17.5q22 0 29 31h72
q0 -52 -24.5 -84t-67.5 -32z" />
    <glyph glyph-name="utilde" unicode="&#x169;" horiz-adv-x="543" 
d="M499 0h-131v60h-3q-28 -38 -61.5 -56t-85.5 -18q-85 0 -131.5 49.5t-46.5 135.5v342h135v-319q0 -93 85 -93q47 0 75 32t28 84v296h136v-513zM329 575q-27 0 -62.5 16.5t-46.5 16.5q-23 0 -27 -31h-72q0 57 25 87.5t65 30.5q27 0 62.5 -17.5t46.5 -17.5q22 0 29 31h72
q0 -52 -24.5 -84t-67.5 -32z" />
    <glyph glyph-name="Umacron" unicode="&#x16a;" horiz-adv-x="657" 
d="M331 -12q-139 0 -210.5 62t-71.5 180v485h145v-485q0 -126 134 -126q67 0 101 34.5t34 93.5v483h145v-485q0 -116 -70.5 -179t-206.5 -63zM185 762v97h284v-97h-284z" />
    <glyph glyph-name="umacron" unicode="&#x16b;" horiz-adv-x="543" 
d="M499 0h-131v60h-3q-28 -38 -61.5 -56t-85.5 -18q-85 0 -131.5 49.5t-46.5 135.5v342h135v-319q0 -93 85 -93q47 0 75 32t28 84v296h136v-513zM129 592v97h284v-97h-284z" />
    <glyph glyph-name="Ubreve" unicode="&#x16c;" horiz-adv-x="657" 
d="M331 -12q-139 0 -210.5 62t-71.5 180v485h145v-485q0 -126 134 -126q67 0 101 34.5t34 93.5v483h145v-485q0 -116 -70.5 -179t-206.5 -63zM328 749q-62 0 -103 37.5t-45 95.5h78q7 -48 69 -48q29 0 47.5 13.5t21.5 34.5h78q-4 -57 -43.5 -95t-102.5 -38z" />
    <glyph glyph-name="ubreve" unicode="&#x16d;" horiz-adv-x="543" 
d="M499 0h-131v60h-3q-28 -38 -61.5 -56t-85.5 -18q-85 0 -131.5 49.5t-46.5 135.5v342h135v-319q0 -93 85 -93q47 0 75 32t28 84v296h136v-513zM272 573q-62 0 -103 37.5t-45 95.5h78q7 -48 69 -48q29 0 47.5 13.5t21.5 34.5h78q-4 -57 -43.5 -95t-102.5 -38z" />
    <glyph glyph-name="Uring" unicode="&#x16e;" horiz-adv-x="657" 
d="M331 -12q-139 0 -210.5 62t-71.5 180v485h145v-485q0 -126 134 -126q67 0 101 34.5t34 93.5v483h145v-485q0 -116 -70.5 -179t-206.5 -63zM327 730q-40 0 -68.5 27.5t-28.5 66.5t28.5 66.5t68.5 27.5t68.5 -27.5t28.5 -66.5t-28.5 -66.5t-68.5 -27.5zM327 777
q20 0 32.5 13.5t12.5 33.5t-12.5 33.5t-32.5 13.5t-32.5 -13.5t-12.5 -33.5t12.5 -33.5t32.5 -13.5z" />
    <glyph glyph-name="uring" unicode="&#x16f;" horiz-adv-x="543" 
d="M499 0h-131v60h-3q-28 -38 -61.5 -56t-85.5 -18q-85 0 -131.5 49.5t-46.5 135.5v342h135v-319q0 -93 85 -93q47 0 75 32t28 84v296h136v-513zM271 561q-40 0 -68.5 27.5t-28.5 66.5t28.5 66.5t68.5 27.5t68.5 -27.5t28.5 -66.5t-28.5 -66.5t-68.5 -27.5zM271 608
q20 0 32.5 13.5t12.5 33.5t-12.5 33.5t-32.5 13.5t-32.5 -13.5t-12.5 -33.5t12.5 -33.5t32.5 -13.5z" />
    <glyph glyph-name="Uhungarumlaut" unicode="&#x170;" horiz-adv-x="657" 
d="M331 -12q-139 0 -210.5 62t-71.5 180v485h145v-485q0 -126 134 -126q67 0 101 34.5t34 93.5v483h145v-485q0 -116 -70.5 -179t-206.5 -63zM374 753l33 125h129l-79 -125h-83zM200 753l33 125h129l-79 -125h-83z" />
    <glyph glyph-name="uhungarumlaut" unicode="&#x171;" horiz-adv-x="543" 
d="M499 0h-131v60h-3q-28 -38 -61.5 -56t-85.5 -18q-85 0 -131.5 49.5t-46.5 135.5v342h135v-319q0 -93 85 -93q47 0 75 32t28 84v296h136v-513zM318 577l40 141h129l-86 -141h-83zM144 577l40 141h129l-86 -141h-83z" />
    <glyph glyph-name="Uogonek" unicode="&#x172;" horiz-adv-x="657" 
d="M389 -174q-116 0 -116 81q0 44 41 81q-131 4 -198 65.5t-67 176.5v485h145v-485q0 -126 134 -126q67 0 101 34.5t34 93.5v483h145v-485q0 -172 -151 -224q-81 -29 -81 -73q0 -28 31 -28q16 0 32 7h2v-77q-22 -9 -52 -9z" />
    <glyph glyph-name="uogonek" unicode="&#x173;" horiz-adv-x="543" 
d="M447 -174q-109 0 -109 81q0 58 64 93h-34v60h-3q-28 -38 -61.5 -56t-85.5 -18q-85 0 -131.5 49.5t-46.5 135.5v342h135v-319q0 -93 85 -93q47 0 75 32t28 84v296h136v-507q-58 -40 -58 -73q0 -28 31 -28q16 0 32 7h2v-77q-22 -9 -59 -9z" />
    <glyph glyph-name="Wcircumflex" unicode="&#x174;" horiz-adv-x="916" 
d="M213 0l-208 715h148l93 -355q3 -16 10 -50.5t11 -50.5q1 -8 4.5 -26.5t5.5 -28.5h2q7 31 11 52q2 9 9.5 45t12.5 55l78 359h140l78 -358q18 -82 22 -100q3 -17 11 -53h2q8 36 12 55q4 16 11.5 51t11.5 51l90 354h143l-204 -715h-135l-87 383q-2 7 -17 83q-2 8 -4.5 22
t-3.5 22h-2q-4 -27 -7 -44q-9 -56 -16 -83l-88 -383h-134zM290 753l94 114h146l96 -114h-118l-48 57h-2l-49 -57h-119z" />
    <glyph glyph-name="wcircumflex" unicode="&#x175;" horiz-adv-x="745" 
d="M154 0l-150 513h135l62 -238q2 -8 8 -30.5t8 -33.5q2 -8 7 -32h2q4 22 7 33q11 52 15 64l64 237h116l67 -237q5 -24 16 -65q1 -5 3.5 -16t4.5 -16h2q5 24 7 32q7 33 16 64l65 238h132l-153 -513h-124l-68 252q-6 16 -16 60q-2 7 -7 29h-2q-2 -5 -4.5 -15l-3.5 -14
q-7 -23 -16 -60l-70 -252h-123zM204 581l94 126h146l96 -126h-118l-48 69h-2l-49 -69h-119z" />
    <glyph glyph-name="Ycircumflex" unicode="&#x176;" horiz-adv-x="629" 
d="M242 0v276l-238 439h158l108 -212q31 -65 32 -67q10 -24 15 -35h2q1 1 7 14.5t9 20.5q1 2 32 67l106 212h152l-238 -439v-276h-145zM146 753l94 114h146l96 -114h-118l-48 57h-2l-49 -57h-119z" />
    <glyph glyph-name="ycircumflex" unicode="&#x177;" horiz-adv-x="497" 
d="M55 -168v107h48q76 0 76 70q0 35 -39 139l-138 365h143l76 -231q5 -14 12.5 -41t9.5 -33q2 -9 11 -38h2q2 7 5 19.5t4 18.5q7 32 21 74l72 231h137l-179 -526q-31 -89 -68 -122t-113 -33h-80zM80 581l94 126h146l96 -126h-118l-48 69h-2l-49 -69h-119z" />
    <glyph glyph-name="Ydieresis" unicode="&#x178;" horiz-adv-x="629" 
d="M242 0v276l-238 439h158l108 -212q31 -65 32 -67q10 -24 15 -35h2q1 1 7 14.5t9 20.5q1 2 32 67l106 212h152l-238 -439v-276h-145zM352 753v114h128v-114h-128zM149 753v114h128v-114h-128z" />
    <glyph glyph-name="Zacute" unicode="&#x179;" horiz-adv-x="626" 
d="M27 0v109l390 482v3h-365v121h537v-121l-377 -468v-3h384v-123h-569zM462 878l-95 -125h-106l42 125h159z" />
    <glyph glyph-name="zacute" unicode="&#x17a;" horiz-adv-x="485" 
d="M27 0v104l264 299v3h-234v107h392v-109l-258 -292v-3h271v-109h-435zM423 718l-108 -141h-106l55 141h159z" />
    <glyph glyph-name="Zdotaccent" unicode="&#x17b;" horiz-adv-x="626" 
d="M27 0v109l390 482v3h-365v121h537v-121l-377 -468v-3h384v-123h-569zM247 753v118h136v-118h-136z" />
    <glyph glyph-name="zdotaccent" unicode="&#x17c;" horiz-adv-x="485" 
d="M27 0v104l264 299v3h-234v107h392v-109l-258 -292v-3h271v-109h-435zM195 593v122h136v-122h-136z" />
    <glyph glyph-name="Zcaron" unicode="&#x17d;" horiz-adv-x="626" 
d="M27 0v109l390 482v3h-365v121h537v-121l-377 -468v-3h384v-123h-569zM483 867l-94 -114h-146l-96 114h118l48 -57h2l49 57h119z" />
    <glyph glyph-name="zcaron" unicode="&#x17e;" horiz-adv-x="485" 
d="M27 0v104l264 299v3h-234v107h392v-109l-258 -292v-3h271v-109h-435zM191 576l-96 126h118l48 -69h2l49 69h119l-94 -126h-146z" />
    <glyph glyph-name="florin" unicode="&#x192;" horiz-adv-x="398" 
d="M30 323v90h91l21 143q13 93 72 122t161 16v-99q-48 4 -69 -6t-27 -47l-19 -129h100v-90h-113l-49 -341q-14 -91 -65.5 -118.5t-147.5 -13.5v93q37 -3 53.5 6.5t22.5 46.5l47 327h-78z" />
    <glyph glyph-name="uni0218" unicode="&#x218;" horiz-adv-x="642" 
d="M332 -16q-146 0 -225.5 61.5t-83.5 175.5h142q8 -65 45.5 -92.5t115.5 -27.5q61 0 100 22.5t39 69.5q0 25 -11 42t-39 29.5t-52 19.5t-75 18q-46 11 -75.5 19t-65 25t-56 37.5t-34.5 54t-14 76.5q0 103 75.5 158.5t198.5 55.5q122 0 195 -57.5t81 -165.5h-139
q-6 53 -43 80.5t-95 27.5q-59 0 -94 -23t-35 -61q0 -41 34 -59.5t122 -38.5q52 -11 85 -20.5t71.5 -27t60 -38.5t36 -55.5t14.5 -79.5q0 -106 -77.5 -166t-200.5 -60zM257 -263v44q62 15 62 64h-60v107h124v-97q0 -54 -35.5 -82.5t-90.5 -35.5z" />
    <glyph glyph-name="uni0219" unicode="&#x219;" horiz-adv-x="485" 
d="M252 -15q-110 0 -172 48.5t-68 132.5h126q13 -85 112 -85q45 0 69.5 16t24.5 43q0 44 -116 64q-13 3 -19 4q-33 7 -55 12.5t-48.5 17.5t-41.5 27t-26 40t-11 58q0 80 58.5 122t150.5 42q100 0 156 -45t64 -125h-123q-5 41 -29 58t-70 17q-41 0 -64.5 -15t-23.5 -42
q0 -13 7 -22t23 -15t29 -9.5t40.5 -8.5t41.5 -8q34 -8 53 -13t47 -17.5t43 -28t26.5 -42t11.5 -61.5q0 -76 -59.5 -120.5t-156.5 -44.5zM180 -263v44q62 15 62 64h-60v107h124v-97q0 -54 -35.5 -82.5t-90.5 -35.5z" />
    <glyph glyph-name="uni021A" unicode="&#x21a;" horiz-adv-x="611" 
d="M18 593v122h575v-122h-215v-593h-145v593h-215zM242 -263v44q62 15 62 64h-60v107h124v-97q0 -54 -35.5 -82.5t-90.5 -35.5z" />
    <glyph glyph-name="uni021B" unicode="&#x21b;" horiz-adv-x="332" 
d="M14 423v90h71v160h133v-160h88v-90h-88v-272q0 -51 51 -51h26q9 0 14 1v-100q-7 -1 -22 -1q-15 -1 -63 -1q-59 0 -99 28.5t-40 94.5v301h-71zM128 -263v44q62 15 62 64h-60v107h124v-97q0 -54 -35.5 -82.5t-90.5 -35.5z" />
    <glyph glyph-name="circumflex" unicode="&#x2c6;" 
d="M82 581l94 126h146l96 -126h-118l-48 69h-2l-49 -69h-119z" />
    <glyph glyph-name="caron" unicode="&#x2c7;" 
d="M178 576l-96 126h118l48 -69h2l49 69h119l-94 -126h-146z" />
    <glyph glyph-name="uni02C9" unicode="&#x2c9;" 
d="M113 592v97h284v-97h-284z" />
    <glyph glyph-name="breve" unicode="&#x2d8;" 
d="M270 573q-62 0 -103 37.5t-45 95.5h78q7 -48 69 -48q29 0 47.5 13.5t21.5 34.5h78q-4 -57 -43.5 -95t-102.5 -38z" />
    <glyph glyph-name="dotaccent" unicode="&#x2d9;" 
d="M182 593v122h136v-122h-136z" />
    <glyph glyph-name="ring" unicode="&#x2da;" 
d="M250 561q-40 0 -68.5 27.5t-28.5 66.5t28.5 66.5t68.5 27.5t68.5 -27.5t28.5 -66.5t-28.5 -66.5t-68.5 -27.5zM250 608q20 0 32.5 13.5t12.5 33.5t-12.5 33.5t-32.5 13.5t-32.5 -13.5t-12.5 -33.5t12.5 -33.5t32.5 -13.5z" />
    <glyph glyph-name="ogonek" unicode="&#x2db;" 
d="M249 -174q-116 0 -116 81q0 58 64 93h86q-47 -41 -47 -67q0 -28 31 -28q16 0 32 7h2v-77q-22 -9 -52 -9z" />
    <glyph glyph-name="tilde" unicode="&#x2dc;" 
d="M308 575q-27 0 -62.5 16.5t-46.5 16.5q-23 0 -27 -31h-72q0 57 25 87.5t65 30.5q27 0 62.5 -17.5t46.5 -17.5q22 0 29 31h72q0 -52 -24.5 -84t-67.5 -32z" />
    <glyph glyph-name="hungarumlaut" unicode="&#x2dd;" 
d="M288 577l40 141h129l-86 -141h-83zM114 577l40 141h129l-86 -141h-83z" />
    <glyph glyph-name="uni0394" unicode="&#x394;" horiz-adv-x="664" 
d="M21 0v98l235 617h150l237 -616v-99h-622zM294 461l-127 -348h326l-128 348q-10 26 -22 74q-4 15 -12 47h-2q-8 -32 -12 -47q-10 -39 -23 -74z" />
    <glyph glyph-name="uni03A9" unicode="&#x3a9;" horiz-adv-x="737" 
d="M370 610q-98 0 -148 -65.5t-50 -182.5q0 -219 155 -255v-107h-296v111h113v2q-59 34 -89.5 105.5t-30.5 156.5q0 158 94 256t251 98t250.5 -98t93.5 -256q0 -85 -30 -156.5t-89 -105.5v-2h112v-111h-295v107q154 36 154 255q0 117 -49.5 182.5t-145.5 65.5z" />
    <glyph glyph-name="uni03BC" unicode="&#x3bc;" horiz-adv-x="547" 
d="M44 -168v681h135v-319q0 -93 85 -93q47 0 75 32t28 84v296h136v-513h-131v60h-3q-52 -74 -129 -74q-35 0 -58 16h-3v-170h-135z" />
    <glyph glyph-name="pi" unicode="&#x3c0;" horiz-adv-x="611" 
d="M225 423v-423h-133v423h-77v90h575v-90h-80v-277q0 -25 9 -35.5t31 -10.5h14h11l4 1v-100q-24 -2 -57 -2q-145 0 -145 123v301h-152z" />
    <glyph glyph-name="endash" unicode="&#x2013;" 
d="M0 196v117h500v-117h-500z" />
    <glyph glyph-name="emdash" unicode="&#x2014;" horiz-adv-x="1000" 
d="M100 196v117h800v-117h-800z" />
    <glyph glyph-name="quoteleft" unicode="&#x2018;" horiz-adv-x="201" 
d="M32 450v118q0 64 40.5 102.5t96.5 47.5v-47q-27 -9 -47.5 -32.5t-20.5 -58.5h66v-130h-135z" />
    <glyph glyph-name="quoteright" unicode="&#x2019;" horiz-adv-x="201" 
d="M32 447v47q27 9 47.5 32.5t20.5 58.5h-66v130h135v-118q0 -64 -40.5 -102.5t-96.5 -47.5z" />
    <glyph glyph-name="quotesinglbase" unicode="&#x201a;" horiz-adv-x="201" 
d="M32 -138v47q27 9 47.5 32.5t20.5 58.5h-66v130h135v-118q0 -64 -40.5 -102.5t-96.5 -47.5z" />
    <glyph glyph-name="quotedblleft" unicode="&#x201c;" horiz-adv-x="399" 
d="M230 450v118q0 64 40.5 102.5t96.5 47.5v-47q-27 -9 -47.5 -32.5t-20.5 -58.5h66v-130h-135zM32 450v118q0 64 40.5 102.5t96.5 47.5v-47q-27 -9 -47.5 -32.5t-20.5 -58.5h66v-130h-135z" />
    <glyph glyph-name="quotedblright" unicode="&#x201d;" horiz-adv-x="399" 
d="M230 447v47q27 9 47.5 32.5t20.5 58.5h-66v130h135v-118q0 -64 -40.5 -102.5t-96.5 -47.5zM32 447v47q27 9 47.5 32.5t20.5 58.5h-66v130h135v-118q0 -64 -40.5 -102.5t-96.5 -47.5z" />
    <glyph glyph-name="quotedblbase" unicode="&#x201e;" horiz-adv-x="399" 
d="M230 -138v47q27 9 47.5 32.5t20.5 58.5h-66v130h135v-118q0 -64 -40.5 -102.5t-96.5 -47.5zM32 -138v47q27 9 47.5 32.5t20.5 58.5h-66v130h135v-118q0 -64 -40.5 -102.5t-96.5 -47.5z" />
    <glyph glyph-name="dagger" unicode="&#x2020;" horiz-adv-x="565" 
d="M34 412v107h183v196h131v-196h183v-107h-183v-529h-131v529h-183z" />
    <glyph glyph-name="daggerdbl" unicode="&#x2021;" horiz-adv-x="565" 
d="M34 412v107h183v196h131v-196h183v-107h-183v-226h183v-107h-183v-196h-131v196h-183v107h183v226h-183z" />
    <glyph glyph-name="bullet" unicode="&#x2022;" horiz-adv-x="351" 
d="M176 182q-58 0 -99 41t-41 98q0 58 41 99t99 41q57 0 98 -41t41 -99q0 -57 -41 -98t-98 -41z" />
    <glyph glyph-name="ellipsis" unicode="&#x2026;" horiz-adv-x="722" 
d="M540 0v145h146v-145h-146zM36 0v145h146v-145h-146zM288 0v145h146v-145h-146z" />
    <glyph glyph-name="perthousand" unicode="&#x2030;" horiz-adv-x="1221" 
d="M195 301q-77 0 -126.5 54.5t-49.5 144.5q0 91 50 145.5t126 54.5q78 0 126.5 -54.5t48.5 -145.5q0 -90 -48.5 -144.5t-126.5 -54.5zM634 -16q-77 0 -126.5 54.5t-49.5 144.5q0 91 50 145.5t126 54.5q78 0 126.5 -54.5t48.5 -145.5q0 -90 -48.5 -144.5t-126.5 -54.5z
M1027 -16q-77 0 -126.5 54.5t-49.5 144.5q0 91 50 145.5t126 54.5q78 0 126.5 -54.5t48.5 -145.5q0 -90 -48.5 -144.5t-126.5 -54.5zM196 0l351 686h85l-351 -686h-85zM195 378q34 0 51.5 33t17.5 89t-17.5 90t-51.5 34t-51.5 -33.5t-17.5 -90.5q0 -56 17.5 -89t51.5 -33z
M634 61q34 0 51.5 33t17.5 89t-17.5 90t-51.5 34t-51.5 -33.5t-17.5 -90.5q0 -56 17.5 -89t51.5 -33zM1027 61q34 0 51.5 33t17.5 89t-17.5 90t-51.5 34t-51.5 -33.5t-17.5 -90.5q0 -56 17.5 -89t51.5 -33z" />
    <glyph glyph-name="guilsinglleft" unicode="&#x2039;" horiz-adv-x="277" 
d="M218 55l-164 140v126l164 140v-131l-88 -72v-2l88 -72v-129z" />
    <glyph glyph-name="guilsinglright" unicode="&#x203a;" horiz-adv-x="277" 
d="M59 461l164 -140v-126l-164 -140v131l88 72v2l-88 72v129z" />
    <glyph glyph-name="fraction" unicode="&#x2044;" horiz-adv-x="244" 
d="M-171 0l496 715h90l-497 -715h-89z" />
    <glyph glyph-name="Euro" unicode="&#x20ac;" horiz-adv-x="630" 
d="M18 369v59h53q21 124 97 198t189 74q112 0 178.5 -63.5t76.5 -168.5h-136q-18 118 -119 118q-58 0 -94 -41.5t-49 -116.5h177v-59h-183q-1 -9 -1 -28q0 -24 1 -35h183v-59h-176q29 -148 147 -148q55 0 86 37.5t38 101.5h132q-6 -114 -74 -184t-184 -70q-112 0 -189 70.5
t-99 192.5h-54v59h47q-1 11 -1 35q0 19 1 28h-47z" />
    <glyph glyph-name="uni2113" unicode="&#x2113;" horiz-adv-x="383" 
d="M14 171v89q33 12 54 22v287q0 81 42 117.5t112 36.5q72 0 107 -37t35 -115q0 -212 -163 -320v-94q0 -32 13 -44.5t44 -12.5q30 0 42 1q4 1 11 1t10 1v-100q-6 -1 -17.5 -1.5t-17.5 -0.5q-40 -2 -64 -2q-78 0 -116 28.5t-38 105.5v54q-17 -6 -54 -16zM201 569v-199
q4 5 10 13t8 11q47 68 47 178q0 32 -7.5 45t-24.5 13q-33 0 -33 -61z" />
    <glyph glyph-name="trademark" unicode="&#x2122;" horiz-adv-x="679" 
d="M314 436v279h108l49 -176h2l50 176h108v-279h-72v181h-2l-55 -181h-61l-54 181h-2v-181h-71zM31 651v64h242v-64h-82v-215h-78v215h-82z" />
    <glyph glyph-name="Omega" unicode="&#x2126;" horiz-adv-x="737" 
d="M370 610q-98 0 -148 -65.5t-50 -182.5q0 -219 155 -255v-107h-296v111h113v2q-59 34 -89.5 105.5t-30.5 156.5q0 158 94 256t251 98t250.5 -98t93.5 -256q0 -85 -30 -156.5t-89 -105.5v-2h112v-111h-295v107q154 36 154 255q0 117 -49.5 182.5t-145.5 65.5z" />
    <glyph glyph-name="estimated" unicode="&#x212e;" horiz-adv-x="621" 
d="M591 301h-421v-213q57 -51 157 -51q158 0 209 149h51q-21 -90 -87 -143.5t-173 -53.5q-139 0 -218.5 88t-79.5 232q0 140 82 229t211 89q103 0 173 -59q98 -84 96 -267zM322 582q-93 0 -152 -52v-185h283v197q-52 40 -131 40z" />
    <glyph glyph-name="partialdiff" unicode="&#x2202;" horiz-adv-x="572" 
d="M391 417q-32 159 -252 186v119q189 -10 294.5 -119.5t105.5 -298.5q0 -149 -68 -233.5t-202 -84.5q-117 0 -178.5 61.5t-61.5 167.5q0 110 66 179t169 69q84 0 127 -46zM271 92q60 0 93.5 44t33.5 110q0 57 -29 85.5t-77 28.5q-57 0 -92.5 -37.5t-35.5 -109.5
q0 -62 29 -91.5t78 -29.5z" />
    <glyph glyph-name="Delta" unicode="&#x2206;" horiz-adv-x="664" 
d="M21 0v98l235 617h150l237 -616v-99h-622zM294 461l-127 -348h326l-128 348q-10 26 -22 74q-4 15 -12 47h-2q-8 -32 -12 -47q-10 -39 -23 -74z" />
    <glyph glyph-name="product" unicode="&#x220f;" horiz-adv-x="701" 
d="M58 715h585v-815h-145v693h-295v-693h-145v815z" />
    <glyph glyph-name="summation" unicode="&#x2211;" horiz-adv-x="608" 
d="M568 -100h-534v125l282 290v2l-282 273v125h524v-118h-362v-2l262 -246v-60l-269 -270v-2h379v-117z" />
    <glyph glyph-name="minus" unicode="&#x2212;" horiz-adv-x="569" 
d="M35 278v100h499v-100h-499z" />
    <glyph glyph-name="uni2215" unicode="&#x2215;" horiz-adv-x="244" 
d="M-171 0l496 715h90l-497 -715h-89z" />
    <glyph glyph-name="uni2219" unicode="&#x2219;" horiz-adv-x="218" 
d="M36 243v145h146v-145h-146z" />
    <glyph glyph-name="radical" unicode="&#x221a;" horiz-adv-x="622" 
d="M17 215v118h174l55 -139q25 -65 29 -78q8 -24 11 -35h2q2 6 4.5 18t3.5 17q12 49 23 79l167 520h130l-264 -815h-119l-131 315h-85z" />
    <glyph glyph-name="infinity" unicode="&#x221e;" horiz-adv-x="725" 
d="M184 124q-75 0 -116 52t-41 129q0 76 41.5 128t115.5 52q59 0 100.5 -30t80.5 -86q37 57 78 86.5t97 29.5q71 0 114.5 -50t43.5 -130q0 -81 -43.5 -131t-114.5 -50q-56 0 -97 29.5t-78 86.5q-39 -56 -80.5 -86t-100.5 -30zM196 385q-31 0 -46.5 -22.5t-15.5 -57.5
q0 -36 15.5 -58.5t46.5 -22.5q29 0 51.5 21t45.5 59q-47 81 -97 81zM529 224q31 0 47 22.5t16 58.5q0 35 -16 57.5t-47 22.5q-46 0 -93 -81q23 -38 44.5 -59t48.5 -21z" />
    <glyph glyph-name="integral" unicode="&#x222b;" horiz-adv-x="337" 
d="M102 -17v612q0 69 33 105q23 23 52.5 32t80.5 9q54 0 87 -11v-102h-3q-22 8 -53 8q-32 0 -46.5 -11.5t-14.5 -42.5v-612q0 -69 -33 -105q-23 -23 -52.5 -32t-80.5 -9q-54 0 -87 11v102h3q22 -8 53 -8q32 0 46.5 11.5t14.5 42.5z" />
    <glyph glyph-name="approxequal" unicode="&#x2248;" horiz-adv-x="562" 
d="M148 339h-95q1 70 36 106t95 36q35 0 113.5 -16.5t98.5 -16.5q17 0 25 7.5t10 24.5h95q-1 -63 -32 -100.5t-93 -37.5q-41 0 -121 16t-97 16q-30 0 -35 -35zM148 145h-95q1 70 36 106t95 36q35 0 113.5 -16.5t98.5 -16.5q17 0 25 7.5t10 24.5h95q-1 -63 -32 -100.5
t-93 -37.5q-41 0 -121 16t-97 16q-30 0 -35 -35z" />
    <glyph glyph-name="notequal" unicode="&#x2260;" horiz-adv-x="562" 
d="M56 358v98h253l41 87h92l-41 -87h119v-98h-164l-44 -95h208v-98h-254l-40 -87h-92l40 87h-118v98h164l44 95h-208z" />
    <glyph glyph-name="lessequal" unicode="&#x2264;" 
d="M455 124l-410 147v123l410 147v-109l-217 -72q-9 -4 -30 -9.5t-30 -8.5q-7 -2 -19 -5.5t-16 -4.5v-2q11 -3 35 -9q15 -4 60 -17l217 -69v-111zM45 0v98h410v-98h-410z" />
    <glyph glyph-name="greaterequal" unicode="&#x2265;" 
d="M45 541l410 -147v-123l-410 -147v109l217 72q4 1 26 7.5t34 10.5q7 2 19 5.5t16 4.5v2q-11 3 -35 9q-49 12 -60 17l-217 69v111zM455 98v-98h-410v98h410z" />
    <glyph glyph-name="lozenge" unicode="&#x25ca;" horiz-adv-x="560" 
d="M340 715l202 -358l-201 -357h-121l-202 358l201 357h121zM278 593l-122 -233l124 -238h2l121 232l-123 239h-2z" />
    <glyph glyph-name="fi" unicode="&#xfb01;" horiz-adv-x="550" 
d="M11 419v94h70v46q0 90 61.5 127.5t166.5 27.5v-105q-51 2 -71.5 -9t-20.5 -49v-38h92v-94h-92v-419h-136v419h-70zM370 0v513h136v-513h-136zM370 593v122h136v-122h-136z" />
    <glyph glyph-name="fl" unicode="&#xfb02;" horiz-adv-x="555" 
d="M14 419v94h70v46q0 90 61.5 127.5t166.5 27.5v-105q-51 2 -71.5 -9t-20.5 -49v-38h92v-94h-92v-419h-136v419h-70zM373 0v715h136v-715h-136z" />
    </font>
</defs>
</svg>
